<svg xmlns="http://www.w3.org/2000/svg" fill="none" viewBox="0 0 40 40">
    <circle cx="20" cy="20" r="20" fill="url(#b)" />
    <path fill="#fff" fill-rule="evenodd"
        d="M20 10.9a9.1 9.1 0 1 0 0 18.2 2.1 2.1 0 0 0 2.1-2.1v-.565c0-.401 0-.69.033-.944a3.9 3.9 0 0 1 3.358-3.357c.254-.034.542-.034.944-.034H27a2.1 2.1 0 0 0 2.1-2.1 9.1 9.1 0 0 0-9.1-9.1ZM9.1 20c0-6.02 4.88-10.9 10.9-10.9 6.02 0 10.9 4.88 10.9 10.9a3.9 3.9 0 0 1-3.9 3.9h-.5c-.493 0-.653.002-.774.018a2.1 2.1 0 0 0-1.808 1.808c-.016.122-.018.281-.018.774v.5a3.9 3.9 0 0 1-3.9 3.9c-6.02 0-10.9-4.88-10.9-10.9Zm7-5a1.9 1.9 0 1 1 3.8 0 1.9 1.9 0 0 1-3.8 0Zm6 1a1.9 1.9 0 1 1 3.8 0 1.9 1.9 0 0 1-3.8 0Zm-9 4a1.9 1.9 0 1 1 3.8 0 1.9 1.9 0 0 1-3.8 0Z"
        clip-rule="evenodd" />

    <defs>
        <linearGradient id="b" x1="19.994" x2="19.994" y1="40" y2="-7.71" gradientUnits="userSpaceOnUse">
            <stop stop-color="#00C68D" />
            <stop offset="1" stop-color="#00F847" />
        </linearGradient>
    </defs>
</svg>