<?xml version="1.0" encoding="utf-8"?>
<!-- Generator: Adobe Illustrator 27.6.1, SVG Export Plug-In . SVG Version: 6.00 Build 0)  -->
<svg version="1.1" id="UNCX_Network" xmlns="http://www.w3.org/2000/svg" xmlns:xlink="http://www.w3.org/1999/xlink" x="0px"
	 y="0px" viewBox="0 0 695 199" style="enable-background:new 0 0 695 199;" xml:space="preserve">
<style type="text/css">
	.st0{fill:#FFFFFF;}
</style>
<g id="UNCX_LOGO_FULL_00000100378025322542372810000002089374274615686032_">
	<g id="network_00000149342708524993407990000013603098708606867351_">
		<path id="k_00000054257172284131508370000006419004856941121409_" class="st0" d="M626.4,153.9l9.9-10.2h5.1l-11.5,11.6l11.6,14
			h-5.2l-9.1-11.4l-0.8,0.8v10.6h-3.9v-25.6h3.9V153.9z"/>
		<path id="r_00000152953918612789841740000017522224467197100202_" class="st0" d="M584.7,143.7c3.1,0,5.1,0.4,6.7,1.5
			c2.8,1.9,3,4.9,3,6c0,3.7-2.3,6.4-5.7,7.1l8,10.9h-4.7l-7.3-10.5h-0.7v10.5h-3.9v-25.6H584.7z M584.1,155.4h1.2
			c1.1,0,5.4-0.1,5.4-4.2c0-3.6-3.4-3.9-5.3-3.9h-1.3V155.4z"/>
		<path id="o_00000093858351803048425280000011004581441276177851_" class="st0" d="M553.1,156.5c0,7.5-5.6,13.3-13.3,13.3
			c-7.7,0-13.3-5.8-13.3-13.3s5.6-13.3,13.3-13.3C547.5,143.2,553.1,149,553.1,156.5z M549.2,156.5c0-5.7-3.9-9.7-9.4-9.7
			c-5.5,0-9.4,4-9.4,9.7c0,5.7,3.9,9.7,9.4,9.7C545.3,166.2,549.2,162.2,549.2,156.5z"/>
		<path id="w_00000102524532212613633880000001843608728509467542_" class="st0" d="M472.1,143.7l6.7,17.1l6.9-18.3l6.7,18.3l7-17.1
			h4.2l-11.4,27.2l-6.7-18.1l-6.7,18.1l-10.9-27.2H472.1z"/>
		<path id="t_00000160894994286934841830000003356108882579135677_" class="st0" d="M438,147.4v21.9h-3.9v-21.9h-5.9v-3.7h15.6v3.7
			H438z"/>
		<path id="e_00000107555091167697268600000008085931166203577763_" class="st0" d="M403.2,147.4H393v6.5h9.9v3.7H393v8.1h10.2v3.7
			h-14.1v-25.6h14.1V147.4z"/>
		<path id="n_00000061466128355880943310000014156477869049216684_" class="st0" d="M338.2,169.3V142l18.6,19.4v-17.7h3.9v27.1
			l-18.6-19.4v17.9H338.2z"/>
	</g>
	<g id="uncx_00000134244636736415750700000001981856577944877984_">
		<path id="x_00000045589717117913254380000012622519654425661590_" class="st0" d="M628.4,68.3L601.7,28h23.8l14.2,24.5L653.9,28
			h23.8L651,68.3l31.5,45.6h-23.8l-19-29.7l-19,29.7h-23.8L628.4,68.3z"/>
		<path id="c_00000145745515771564850650000005589828734718561215_" class="st0" d="M577.5,111.2c-7.6,3.9-13.8,4.6-18.9,4.6
			c-15.8,0-26.5-5.4-33.7-12.5c-7.7-7.5-13.4-18.8-13.4-32.6c0-13.5,5.7-24.8,13.4-32.3c7.6-7.3,18.7-12.4,32-12.4
			c5.7,0,12.2,1.2,20.6,4.8v22.9c-4.4-4.6-10.9-9.1-20.1-9.1c-7.2,0-13,2.3-17.5,6.7c-4.8,4.6-8.1,11.6-8.1,19.8
			c0,8.9,3.6,15.2,7.5,18.9c1.8,1.8,8,7.2,18.5,7.2c5.1,0,12.1-1.4,19.7-8.9V111.2z"/>
		<path id="n_00000158721944748111539640000016283865207742823334_" class="st0" d="M402.4,113.9V28h17.2l46.6,55.3V28H486v85.8
			h-17.2l-46.6-55.6v55.6H402.4z"/>
		<path id="u_00000005246750863580477850000002461678574922837183_" class="st0" d="M372.6,78.9c0,8.2-1,18.4-9.5,27.2
			c-8.2,8.5-17.8,9.8-26.8,9.8c-9,0-18.5-1.3-26.8-9.8c-8.5-8.8-9.5-18.9-9.5-27.2V28h19.8v50.3c0,3.7,0.3,10,4.5,14.4
			c3.5,3.7,8.2,4.5,12,4.5s8.5-0.8,12-4.5c4.2-4.4,4.5-10.7,4.5-14.4V28h19.8V78.9z"/>
	</g>
	<g id="logo_00000087393170273089105430000004319682871718910399_">
		<path id="triangle_00000080891308911133016460000016260488500938674599_" class="st0" d="M221.5,11.1H42.3
			C17.6,11.1,3.6,39.4,18.6,59l89.6,117.2c10.2,13.3,28.7,15.3,41.3,5.9c2.2-1.6,4.2-3.6,6-5.9l41-53.7v0
			c-2.2-6.7-4.9-12.8-5.4-13.7c-8.2-14.8-21.6-22.7-28.3-26c-1.3-0.6-2.7,0.7-2.1,2c4.5,9.9,2.3,20.1,0,23.4c0,0.1-0.1,0.1-0.1,0.2
			c-5.6,7.2-15.5,10-15.9,10.1c0,0,0,0,0,0c-22.1,7.4-36.6,10-43.9,10.7c-5.2,0.5-10.5-0.4-15.2-2.8c-8.3-4.3-11-11.1-6-19.1
			c0,0,32.3-50.9,32.3-51c-0.3-0.2-31.9-23-47.5-34.2c-1.3-0.9-0.2-2.9,1.3-2.3l57.8,22.6c4.9-5.3,10.7-8.8,17-10.9l6-11
			c0.5-1,2-1,2.5,0l4.7,8.6l17.9-13.2c0.9-0.7,2.2-0.1,2.3,1l1.3,15.6c11.4-6,24-1.2,31.5,2.9c3.9,2.2-1.9,7.8-3.1,10.6
			c11.7-1.9,21.9,1.9,28.7,7c2.8,2.1-2.1,7.5-3.5,10.3c4.7-1.6,9.2-3.1,13.2-0.6l3-3.9C260.1,39.4,246.2,11.1,221.5,11.1z"/>
		<path id="eye_00000143597388672820045350000008008707872397383597_" class="st0" d="M116.8,85.5l16.6-14.9c0,0,5.2,7.1-1.4,13.2
			C132,83.8,125.4,89.7,116.8,85.5z"/>
		<path id="neck_00000104699533995948229570000010279267360508615565_" class="st0" d="M196.6,122.5l-41,53.7
			c-1.8,2.3-3.8,4.3-6,5.9c4.4-19.8,4.6-47.6-4.8-63.5c0,0,0,0,0,0c0.4-0.1,10.3-2.9,15.9-10.1c0-0.1,0.1-0.1,0.1-0.2
			c2.3-3.3,4.5-13.5,0-23.4c-0.6-1.3,0.8-2.7,2.1-2c6.8,3.2,20.1,11.1,28.3,26C191.7,109.8,194.4,115.8,196.6,122.5z"/>
	</g>
	<g id="TM">
		<path id="M" class="st0" d="M665.3,152.8l1.8-9.3l3,6.7l3-6.7l1.6,9.3h-1.4l-0.9-5.2l-2.5,5.6l-2.5-5.6l-0.9,5.2H665.3z"/>
		<path id="T" class="st0" d="M662.4,145.3v7.4H661v-7.4h-2v-1.2h5.3v1.2H662.4z"/>
	</g>
</g>
</svg>
