<?xml version="1.0" encoding="UTF-8"?><svg id="UNCX_Network" xmlns="http://www.w3.org/2000/svg" xmlns:xlink="http://www.w3.org/1999/xlink" viewBox="0 0 376 448.38"><defs><style>.cls-1{fill:url(#linear-gradient-2);}.cls-2{fill:#f4f4f4;}.cls-3{fill:#fff;}.cls-4{fill:url(#linear-gradient-6);}.cls-5{fill:url(#linear-gradient-5);}.cls-6{fill:url(#linear-gradient-7);}.cls-7{fill:url(#linear-gradient-3);}.cls-8{fill:url(#linear-gradient);}.cls-9{fill:url(#linear-gradient-4);}</style><linearGradient id="linear-gradient" x1="333.88" y1="392.32" x2="333.88" y2="307.95" gradientUnits="userSpaceOnUse"><stop offset="0" stop-color="#00c68d"/><stop offset="1" stop-color="#00f847"/></linearGradient><linearGradient id="linear-gradient-2" x1="240.34" y1="394.22" x2="240.34" y2="306.06" xlink:href="#linear-gradient"/><linearGradient id="linear-gradient-3" x1="141.73" x2="141.73" xlink:href="#linear-gradient"/><linearGradient id="linear-gradient-4" x1="35.67" y1="394.22" x2="35.67" xlink:href="#linear-gradient"/><linearGradient id="linear-gradient-5" x1="373.45" y1="138.03" x2=".41" y2="138.03" xlink:href="#linear-gradient"/><linearGradient id="linear-gradient-6" x1="181.13" y1="91.51" x2="176.21" y2="119.39" xlink:href="#linear-gradient"/><linearGradient id="linear-gradient-7" x1="190.71" y1="201.57" x2="285.55" y2="167.05" gradientUnits="userSpaceOnUse"><stop offset="0" stop-color="#00f847"/><stop offset="1" stop-color="#fff"/></linearGradient></defs><g id="UNCX_LOGO_FULL"><g id="network"><path id="k" class="cls-2" d="m320.83,431.65l9.72-10.02h5.05l-11.34,11.38,11.42,13.75h-5.13l-8.97-11.15-.75.75v10.4h-3.84v-25.13h3.84v10.02Z"/><path id="r" class="cls-2" d="m279.85,421.62c3.05,0,5.01.38,6.63,1.47,2.75,1.85,2.98,4.82,2.98,5.92,0,3.62-2.22,6.26-5.58,7.01l7.84,10.74h-4.63l-7.2-10.29h-.68v10.29h-3.84v-25.13h4.48Zm-.64,11.53h1.21c1.06,0,5.35-.11,5.35-4.11,0-3.54-3.35-3.88-5.24-3.88h-1.32v7.99Z"/><path id="o" class="cls-2" d="m248.8,434.21c0,7.39-5.54,13.04-13.08,13.04s-13.08-5.65-13.08-13.04,5.54-13.04,13.08-13.04,13.08,5.65,13.08,13.04Zm-3.84,0c0-5.58-3.84-9.5-9.23-9.5s-9.23,3.92-9.23,9.5,3.84,9.5,9.23,9.5,9.23-3.92,9.23-9.5Z"/><path id="w" class="cls-2" d="m169.19,421.62l6.63,16.81,6.78-18.01,6.56,18.01,6.86-16.81h4.15l-11.23,26.76-6.56-17.82-6.63,17.82-10.7-26.76h4.15Z"/><path id="t" class="cls-2" d="m135.61,425.24v21.52h-3.84v-21.52h-5.77v-3.62h15.37v3.62h-5.77Z"/><path id="e" class="cls-2" d="m101.43,425.24h-10.02v6.37h9.72v3.62h-9.72v7.91h10.02v3.62h-13.87v-25.13h13.87v3.62Z"/><path id="n" class="cls-2" d="m37.58,446.76v-26.83l18.24,19.11v-17.41h3.84v26.68l-18.24-19.11v17.56h-3.84Z"/></g><g id="uncx"><path id="x" class="cls-8" d="m322.75,347.55l-26.18-39.59h23.4l13.91,24.03,13.91-24.03h23.4l-26.18,39.59,30.99,44.78h-23.4l-18.72-29.22-18.72,29.22h-23.4l30.99-44.78Z"/><path id="c" class="cls-1" d="m272.78,389.67c-7.46,3.8-13.53,4.55-18.59,4.55-15.56,0-26.06-5.31-33.14-12.27-7.59-7.34-13.16-18.47-13.16-32s5.56-24.41,13.16-31.75c7.46-7.21,18.34-12.14,31.5-12.14,5.56,0,12.02,1.14,20.24,4.68v22.52c-4.3-4.55-10.75-8.98-19.73-8.98-7.08,0-12.77,2.28-17.2,6.58-4.68,4.55-7.97,11.38-7.97,19.48,0,8.73,3.54,14.93,7.34,18.59,1.77,1.77,7.84,7.08,18.22,7.08,5.06,0,11.89-1.39,19.35-8.73v22.39Z"/><path id="n-2" class="cls-7" d="m100.62,392.32v-84.37h16.95l45.79,54.39v-54.39h19.48v84.37h-16.95l-45.79-54.64v54.64h-19.48Z"/><path id="u" class="cls-9" d="m71.34,357.92c0,8.1-1.01,18.09-9.36,26.69-8.1,8.35-17.46,9.61-26.31,9.61s-18.22-1.26-26.31-9.61c-8.35-8.6-9.36-18.59-9.36-26.69v-49.96h19.48v49.46c0,3.67.25,9.87,4.43,14.17,3.41,3.67,8.1,4.43,11.76,4.43s8.35-.76,11.76-4.43c4.17-4.3,4.43-10.5,4.43-14.17v-49.46h19.48v49.96Z"/></g><g id="logo"><path id="triangle" class="cls-5" d="m326.85,0H47.01C8.49,0-13.34,44.15,10.06,74.75l139.92,183.04c15.85,20.74,44.81,23.81,64.55,9.21,3.44-2.52,6.59-5.59,9.36-9.21l67.1-91.28,72.82-91.76c23.4-30.6,1.57-74.75-36.95-74.75Z"/><path id="head" class="cls-3" d="m338.47,81.85c2.17-4.36,9.84-12.73,5.4-16.04-10.62-7.92-26.6-13.82-44.81-10.91,1.9-4.34,11.01-13.2,4.89-16.57-11.72-6.44-31.38-13.88-49.25-4.58l-2.08-24.28c-.16-1.74-2.14-2.62-3.53-1.59l-27.94,20.65h0l-7.4-13.45c-.83-1.56-3.04-1.56-3.89,0l-9.41,17.12c-9.86,3.19-18.89,8.69-26.62,16.97L83.64,13.84c-2.26-.89-3.93,2.17-1.97,3.58,24.36,17.54,73.81,53.11,74.21,53.42,0,.02-50.47,79.55-50.47,79.57-7.78,12.45-3.6,23.02,9.37,29.77,7.33,3.78,15.56,5.18,23.67,4.34,11.4-1.18,33.98-5.25,68.55-16.74h.02c.63-.18,16.16-4.45,24.88-15.76.04-.11.13-.18.18-.31,3.58-5.14,6.97-21.05-.05-36.52-.94-2.03,1.19-4.16,3.26-3.18,10.55,5.07,31.4,17.37,44.23,40.54.81,1.48,5.07,10.95,8.43,21.44h0s71.18-93.1,71.18-93.1c0,0,0,0,0,0-6.28-3.82-13.32-1.59-20.65.95Z"/><path id="eye" class="cls-4" d="m163.41,116.2l25.92-23.24s8.08,11.06-2.21,20.62c0,0-10.29,9.12-23.71,2.62Z"/><path id="neck" class="cls-6" d="m287.94,173.99l-64.06,83.8c-2.77,3.62-5.92,6.7-9.36,9.21,6.89-30.89,7.13-74.32-7.53-99.22h.02c.63-.18,16.16-4.45,24.88-15.76.04-.11.13-.18.18-.31,3.58-5.14,6.97-21.05-.05-36.52-.94-2.03,1.19-4.16,3.26-3.18,10.55,5.07,31.4,17.37,44.23,40.54.81,1.48,5.07,10.95,8.43,21.44Z"/></g><g id="TM"><path id="M" class="cls-2" d="m359.31,430.27l1.82-9.32,3.02,6.73,3.04-6.73,1.64,9.32h-1.35l-.88-5.23-2.52,5.63-2.5-5.64-.91,5.24h-1.35Z"/><path id="T" class="cls-2" d="m356.41,422.84v7.42h-1.33v-7.42h-1.99v-1.25h5.3v1.25h-1.99Z"/></g></g></svg>