<?xml version="1.0" encoding="UTF-8"?><svg id="UNCX_Network" xmlns="http://www.w3.org/2000/svg" xmlns:xlink="http://www.w3.org/1999/xlink" viewBox="0 0 670.14 176.79"><defs><style>.cls-1{fill:url(#linear-gradient-2);}.cls-2{fill:#f4f4f4;}.cls-3{fill:#fff;}.cls-4{fill:url(#linear-gradient-6);}.cls-5{fill:url(#linear-gradient-5);}.cls-6{fill:url(#linear-gradient-7);}.cls-7{fill:url(#linear-gradient-3);}.cls-8{fill:url(#linear-gradient);}.cls-9{fill:url(#linear-gradient-4);}</style><linearGradient id="linear-gradient" x1="627.28" y1="102.77" x2="627.28" y2="16.92" gradientUnits="userSpaceOnUse"><stop offset="0" stop-color="#00c68d"/><stop offset="1" stop-color="#00f847"/></linearGradient><linearGradient id="linear-gradient-2" x1="532.1" y1="104.7" x2="532.1" y2="14.99" xlink:href="#linear-gradient"/><linearGradient id="linear-gradient-3" x1="431.77" x2="431.77" xlink:href="#linear-gradient"/><linearGradient id="linear-gradient-4" x1="323.85" y1="104.7" x2="323.85" xlink:href="#linear-gradient"/><linearGradient id="linear-gradient-5" x1="238.9" y1="88.4" x2="0" y2="88.4" xlink:href="#linear-gradient"/><linearGradient id="linear-gradient-6" x1="115.73" y1="58.61" x2="112.59" y2="76.46" xlink:href="#linear-gradient"/><linearGradient id="linear-gradient-7" x1="121.87" y1="129.09" x2="182.61" y2="106.98" gradientUnits="userSpaceOnUse"><stop offset="0" stop-color="#00f847"/><stop offset="1" stop-color="#fff"/></linearGradient></defs><g id="UNCX_LOGO_FULL"><g id="network"><path id="k" class="cls-2" d="m614,142.78l9.89-10.2h5.14l-11.54,11.58,11.62,14h-5.22l-9.13-11.35-.77.77v10.58h-3.91v-25.57h3.91v10.2Z"/><path id="r" class="cls-2" d="m572.3,132.58c3.11,0,5.1.38,6.75,1.5,2.8,1.88,3.03,4.91,3.03,6.02,0,3.68-2.26,6.37-5.67,7.13l7.97,10.93h-4.72l-7.32-10.47h-.69v10.47h-3.91v-25.57h4.56Zm-.65,11.73h1.23c1.07,0,5.44-.12,5.44-4.18,0-3.6-3.41-3.95-5.33-3.95h-1.34v8.13Z"/><path id="o" class="cls-2" d="m540.71,145.39c0,7.52-5.64,13.27-13.3,13.27s-13.31-5.75-13.31-13.27,5.64-13.27,13.31-13.27,13.3,5.75,13.3,13.27Zm-3.91,0c0-5.68-3.91-9.66-9.39-9.66s-9.39,3.99-9.39,9.66,3.91,9.66,9.39,9.66,9.39-3.99,9.39-9.66Z"/><path id="w" class="cls-2" d="m459.71,132.58l6.75,17.1,6.9-18.33,6.67,18.33,6.98-17.1h4.22l-11.43,27.22-6.67-18.14-6.75,18.14-10.89-27.22h4.22Z"/><path id="t" class="cls-2" d="m425.53,136.26v21.89h-3.91v-21.89h-5.87v-3.68h15.64v3.68h-5.87Z"/><path id="e" class="cls-2" d="m390.76,136.26h-10.2v6.48h9.89v3.68h-9.89v8.05h10.2v3.68h-14.11v-25.57h14.11v3.68Z"/><path id="n" class="cls-2" d="m325.79,158.15v-27.3l18.56,19.44v-17.71h3.91v27.15l-18.56-19.44v17.87h-3.91Z"/></g><g id="uncx"><path id="x" class="cls-8" d="m615.95,57.2l-26.64-40.28h23.81l14.16,24.45,14.16-24.45h23.81l-26.64,40.28,31.53,45.56h-23.81l-19.05-29.73-19.05,29.73h-23.81l31.53-45.56Z"/><path id="c" class="cls-1" d="m565.11,100.06c-7.59,3.86-13.77,4.63-18.92,4.63-15.83,0-26.51-5.4-33.72-12.48-7.72-7.46-13.39-18.79-13.39-32.56s5.66-24.84,13.39-32.31c7.59-7.34,18.66-12.36,32.05-12.36,5.66,0,12.23,1.16,20.59,4.76v22.91c-4.38-4.63-10.94-9.14-20.08-9.14-7.21,0-13,2.32-17.5,6.69-4.76,4.63-8.11,11.58-8.11,19.82,0,8.88,3.6,15.19,7.47,18.92,1.8,1.8,7.98,7.21,18.53,7.21,5.15,0,12.1-1.42,19.69-8.88v22.78Z"/><path id="n-2" class="cls-7" d="m389.94,102.77V16.92h17.25l46.59,55.34V16.92h19.82v85.85h-17.25l-46.59-55.6v55.6h-19.82Z"/><path id="u" class="cls-9" d="m360.15,67.76c0,8.24-1.03,18.41-9.52,27.16-8.24,8.49-17.76,9.78-26.77,9.78s-18.53-1.29-26.77-9.78c-8.49-8.75-9.52-18.92-9.52-27.16V16.92h19.82v50.32c0,3.73.26,10.04,4.5,14.41,3.47,3.73,8.24,4.5,11.97,4.5s8.49-.77,11.97-4.5c4.25-4.38,4.5-10.68,4.5-14.41V16.92h19.82v50.84Z"/></g><g id="logo"><path id="triangle" class="cls-5" d="m209.05,0H29.84C5.17,0-8.81,28.28,6.18,47.87l89.61,117.22c10.15,13.28,28.69,15.25,41.34,5.9,2.2-1.61,4.22-3.58,5.99-5.9l42.45-59.2,47.15-58.02c14.98-19.6,1.01-47.87-23.66-47.87Z"/><path id="head" class="cls-3" d="m216.49,52.42c1.39-2.79,6.3-8.15,3.46-10.27-6.8-5.07-17.04-8.85-28.7-6.99,1.22-2.78,7.05-8.46,3.13-10.61-7.51-4.12-20.1-8.89-31.54-2.93l-1.33-15.55c-.1-1.11-1.37-1.68-2.26-1.02l-17.89,13.22h0l-4.74-8.61c-.53-1-1.95-1-2.49,0l-6.03,10.96c-6.32,2.04-12.1,5.56-17.05,10.87L53.3,8.87c-1.45-.57-2.51,1.39-1.26,2.29,15.6,11.23,47.27,34.01,47.53,34.21,0,.01-32.32,50.95-32.32,50.96-4.98,7.97-2.31,14.74,6,19.06,4.69,2.42,9.97,3.31,15.16,2.78,7.3-.75,21.76-3.36,43.9-10.72h.01c.41-.12,10.35-2.85,15.93-10.09.02-.07.08-.12.12-.2,2.29-3.29,4.46-13.48-.03-23.39-.6-1.3.76-2.67,2.09-2.04,6.76,3.24,20.11,11.13,28.32,25.96.52.95,3.24,7.01,5.4,13.73h0s45.59-59.62,45.59-59.62c0,0,0,0,0,0-4.02-2.45-8.53-1.02-13.23.61Z"/><path id="eye" class="cls-4" d="m104.39,74.42l16.6-14.88s5.18,7.08-1.41,13.21c0,0-6.59,5.84-15.18,1.68Z"/><path id="neck" class="cls-6" d="m184.14,111.43l-41.03,53.67c-1.77,2.32-3.79,4.29-5.99,5.9,4.42-19.78,4.57-47.6-4.82-63.54h.01c.41-.12,10.35-2.85,15.93-10.09.02-.07.08-.12.12-.2,2.29-3.29,4.46-13.48-.03-23.39-.6-1.3.76-2.67,2.09-2.04,6.76,3.24,20.11,11.13,28.32,25.96.52.95,3.24,7.01,5.4,13.73Z"/></g><g id="TM"><path id="M" class="cls-2" d="m652.83,141.66l1.82-9.32,3.02,6.73,3.04-6.73,1.64,9.32h-1.35l-.88-5.23-2.52,5.63-2.5-5.64-.91,5.24h-1.35Z"/><path id="T" class="cls-2" d="m649.93,134.24v7.42h-1.33v-7.42h-1.99v-1.25h5.3v1.25h-1.99Z"/></g></g></svg>