<?xml version="1.0" encoding="utf-8"?>
<!-- Generator: Adobe Illustrator 26.0.2, SVG Export Plug-In . SVG Version: 6.00 Build 0)  -->
<svg version="1.2" baseProfile="tiny" id="Unicrypt_Logo"
	 xmlns="http://www.w3.org/2000/svg" xmlns:xlink="http://www.w3.org/1999/xlink" x="0px" y="0px" viewBox="0 0 1246 1080"
	 overflow="visible" xml:space="preserve">
<g id="Network">
	<linearGradient id="SVGID_1_" gradientUnits="userSpaceOnUse" x1="308.0673" y1="967.3008" x2="308.0673" y2="1014.9116">
		<stop  offset="0" style="stop-color:#00F13E"/>
		<stop  offset="1" style="stop-color:#00C886"/>
	</linearGradient>
	<path fill="url(#SVGID_1_)" d="M289.54,1012.32V967.3l30.6,32.06v-29.21h6.45v44.76l-30.6-32.06v29.46H289.54z"/>
	
		<linearGradient id="SVGID_00000158024431039426266330000008656113511889324690_" gradientUnits="userSpaceOnUse" x1="409.0613" y1="970.1466" x2="409.0613" y2="1012.3201">
		<stop  offset="0" style="stop-color:#00F13E"/>
		<stop  offset="1" style="stop-color:#00C886"/>
	</linearGradient>
	<path fill="url(#SVGID_00000158024431039426266330000008656113511889324690_)" d="M420.7,976.22h-16.82v10.68h16.31v6.07h-16.31
		v13.28h16.82v6.07h-23.27v-42.17h23.27V976.22z"/>
	
		<linearGradient id="SVGID_00000170253617251684463090000018410197276627779496_" gradientUnits="userSpaceOnUse" x1="498.2299" y1="970.1466" x2="498.2299" y2="1012.3201">
		<stop  offset="0" style="stop-color:#00F13E"/>
		<stop  offset="1" style="stop-color:#00C886"/>
	</linearGradient>
	<path fill="url(#SVGID_00000170253617251684463090000018410197276627779496_)" d="M501.45,976.22v36.1h-6.45v-36.1h-9.67v-6.07
		h25.8v6.07H501.45z"/>
	
		<linearGradient id="SVGID_00000110460842203524875000000004904444081658227126_" gradientUnits="userSpaceOnUse" x1="602.1934" y1="968.1243" x2="602.1934" y2="1015.0387">
		<stop  offset="0" style="stop-color:#00F13E"/>
		<stop  offset="1" style="stop-color:#00C886"/>
	</linearGradient>
	<path fill="url(#SVGID_00000110460842203524875000000004904444081658227126_)" d="M579.68,970.15l11.13,28.2l11.38-30.22l11,30.22
		l11.51-28.2h6.95l-18.84,44.89l-11-29.91l-11.13,29.91l-17.96-44.89H579.68z"/>
	
		<linearGradient id="SVGID_00000177469247612565415380000008815560024971210631_" gradientUnits="userSpaceOnUse" x1="716.3419" y1="969.3878" x2="716.3419" y2="1013.1415">
		<stop  offset="0" style="stop-color:#00F13E"/>
		<stop  offset="1" style="stop-color:#00C886"/>
	</linearGradient>
	<path fill="url(#SVGID_00000177469247612565415380000008815560024971210631_)" d="M738.28,991.27c0,12.39-9.3,21.88-21.94,21.88
		s-21.94-9.48-21.94-21.88c0-12.39,9.29-21.88,21.94-21.88S738.28,978.87,738.28,991.27z M731.83,991.27
		c0-9.36-6.45-15.93-15.49-15.93s-15.49,6.58-15.49,15.93c0,9.36,6.45,15.93,15.49,15.93S731.83,1000.62,731.83,991.27z"/>
	
		<linearGradient id="SVGID_00000152254106878912044110000010586814107253882270_" gradientUnits="userSpaceOnUse" x1="820.814" y1="970.1466" x2="820.814" y2="1012.3201">
		<stop  offset="0" style="stop-color:#00F13E"/>
		<stop  offset="1" style="stop-color:#00C886"/>
	</linearGradient>
	<path fill="url(#SVGID_00000152254106878912044110000010586814107253882270_)" d="M814.62,970.15c5.12,0,8.41,0.63,11.13,2.47
		c4.62,3.1,5,8.09,5,9.93c0,6.07-3.73,10.5-9.36,11.76l13.15,18.02h-7.78l-12.08-17.26h-1.14v17.26h-6.45v-42.17H814.62z
		 M813.54,989.5h2.02c1.77,0,8.98-0.19,8.98-6.89c0-5.94-5.63-6.51-8.79-6.51h-2.21V989.5z"/>
	
		<linearGradient id="SVGID_00000099654620539839484660000000132341121010388881_" gradientUnits="userSpaceOnUse" x1="917.2543" y1="970.1466" x2="917.2543" y2="1012.3201">
		<stop  offset="0" style="stop-color:#00F13E"/>
		<stop  offset="1" style="stop-color:#00C886"/>
	</linearGradient>
	<path fill="url(#SVGID_00000099654620539839484660000000132341121010388881_)" d="M908.02,986.96l16.31-16.82h8.47l-19.03,19.09
		l19.16,23.08h-8.6l-15.05-18.72l-1.27,1.26v17.45h-6.45v-42.17h6.45V986.96z"/>
</g>
<g id="Unicrypt">
	<g>
		
			<linearGradient id="SVGID_00000170957636327791873780000012019196982582367148_" gradientUnits="userSpaceOnUse" x1="200.9661" y1="784.6364" x2="200.9661" y2="926.1085">
			<stop  offset="0" style="stop-color:#FFFFFF"/>
			<stop  offset="1" style="stop-color:#B1B1B1"/>
		</linearGradient>
		<path fill="url(#SVGID_00000170957636327791873780000012019196982582367148_)" d="M176.78,784.64v74.84
			c0,4.02,0.15,8.12,0.45,12.32s1.22,8,2.74,11.41c1.52,3.41,3.92,6.18,7.21,8.31c3.28,2.13,7.91,3.2,13.87,3.2
			c5.96,0,10.56-1.06,13.78-3.2c3.22-2.13,5.63-4.9,7.21-8.31c1.58-3.4,2.53-7.21,2.83-11.41s0.46-8.31,0.46-12.32v-74.84h35.59
			v79.77c0,21.42-4.9,37.06-14.69,46.91c-9.8,9.86-24.86,14.79-45.18,14.79s-35.41-4.93-45.27-14.79
			c-9.86-9.86-14.79-25.49-14.79-46.91v-79.77H176.78z"/>
		
			<linearGradient id="SVGID_00000025401703362931936110000004749264910664459425_" gradientUnits="userSpaceOnUse" x1="358.5026" y1="784.6364" x2="358.5026" y2="922.2751">
			<stop  offset="0" style="stop-color:#FFFFFF"/>
			<stop  offset="1" style="stop-color:#B1B1B1"/>
		</linearGradient>
		<path fill="url(#SVGID_00000025401703362931936110000004749264910664459425_)" d="M289.77,922.28V784.64h35.78l66.08,84.15v-84.15
			h35.6v137.64h-35.6l-66.08-84.15v84.15H289.77z"/>
		
			<linearGradient id="SVGID_00000067925354811082854110000007309149951823668866_" gradientUnits="userSpaceOnUse" x1="473.9597" y1="784.6364" x2="473.9597" y2="922.2751">
			<stop  offset="0" style="stop-color:#FFFFFF"/>
			<stop  offset="1" style="stop-color:#B1B1B1"/>
		</linearGradient>
		<path fill="url(#SVGID_00000067925354811082854110000007309149951823668866_)" d="M491.85,784.64v137.64h-35.78V784.64H491.85z"/>
		
			<linearGradient id="SVGID_00000066478380615779419400000011580393211541013936_" gradientUnits="userSpaceOnUse" x1="565.0792" y1="780.803" x2="565.0792" y2="926.1085">
			<stop  offset="0" style="stop-color:#FFFFFF"/>
			<stop  offset="1" style="stop-color:#B1B1B1"/>
		</linearGradient>
		<path fill="url(#SVGID_00000066478380615779419400000011580393211541013936_)" d="M617.74,830.64
			c-8.28-10.1-18.5-15.15-30.67-15.15c-5.35,0-10.31,0.97-14.88,2.92c-4.56,1.95-8.49,4.59-11.77,7.94
			c-3.28,3.35-5.87,7.33-7.76,11.96c-1.89,4.63-2.83,9.61-2.83,14.97c0,5.48,0.94,10.53,2.83,15.15c1.89,4.63,4.5,8.64,7.85,12.05
			c3.35,3.41,7.27,6.09,11.78,8.03c4.5,1.95,9.37,2.92,14.6,2.92c11.44,0,21.72-4.87,30.85-14.6v42.35l-3.65,1.28
			c-5.47,1.95-10.59,3.38-15.33,4.29c-4.75,0.91-9.43,1.37-14.05,1.37c-9.49,0-18.59-1.8-27.29-5.38c-8.7-3.59-16.37-8.64-23-15.15
			c-6.63-6.51-11.96-14.24-15.97-23.18c-4.02-8.95-6.02-18.71-6.02-29.3c0-10.59,1.98-20.29,5.93-29.12
			c3.95-8.82,9.25-16.43,15.88-22.82c6.63-6.39,14.33-11.38,23.09-14.97c8.76-3.59,17.95-5.38,27.56-5.38
			c5.48,0,10.86,0.58,16.16,1.73c5.29,1.16,10.86,2.95,16.7,5.39V830.64z"/>
		
			<linearGradient id="SVGID_00000016773306282236555500000011219799009298614684_" gradientUnits="userSpaceOnUse" x1="701.7396" y1="784.6364" x2="701.7396" y2="922.2751">
			<stop  offset="0" style="stop-color:#FFFFFF"/>
			<stop  offset="1" style="stop-color:#B1B1B1"/>
		</linearGradient>
		<path fill="url(#SVGID_00000016773306282236555500000011219799009298614684_)" d="M758.97,922.28h-44.54l-34.14-52.94v52.94
			h-35.78V784.64h55.68c7.67,0,14.36,1.13,20.08,3.38c5.72,2.25,10.43,5.33,14.15,9.22c3.71,3.9,6.51,8.4,8.39,13.51
			c1.89,5.11,2.83,10.59,2.83,16.43c0,10.47-2.53,18.96-7.58,25.47c-5.05,6.51-12.5,10.92-22.36,13.23L758.97,922.28z
			 M680.29,846.15h6.75c7.05,0,12.47-1.46,16.25-4.38c3.77-2.92,5.66-7.12,5.66-12.6c0-5.48-1.89-9.67-5.66-12.59
			c-3.77-2.92-9.19-4.38-16.25-4.38h-6.75V846.15z"/>
		
			<linearGradient id="SVGID_00000044882712218613216260000015297748485833957264_" gradientUnits="userSpaceOnUse" x1="816.5027" y1="784.6364" x2="816.5027" y2="922.2751">
			<stop  offset="0" style="stop-color:#FFFFFF"/>
			<stop  offset="1" style="stop-color:#B1B1B1"/>
		</linearGradient>
		<path fill="url(#SVGID_00000044882712218613216260000015297748485833957264_)" d="M798.52,856.19l-50.2-71.56h42.72l25.56,37.6
			l25.38-37.6h42.72l-50.38,71.56v66.08h-35.78V856.19z"/>
		
			<linearGradient id="SVGID_00000164506971362887445740000004769658763122747008_" gradientUnits="userSpaceOnUse" x1="949.6663" y1="784.6364" x2="949.6663" y2="922.2751">
			<stop  offset="0" style="stop-color:#FFFFFF"/>
			<stop  offset="1" style="stop-color:#B1B1B1"/>
		</linearGradient>
		<path fill="url(#SVGID_00000164506971362887445740000004769658763122747008_)" d="M933.06,922.28h-35.78V784.64h56.95
			c15.45,0,27.29,4.02,35.5,12.05c8.22,8.03,12.32,19.35,12.32,33.95c0,14.6-4.11,25.92-12.32,33.95
			c-8.21,8.03-20.05,12.05-35.5,12.05h-21.17V922.28z M933.06,847.8h11.86c13.14,0,19.72-5.72,19.72-17.16
			c0-11.44-6.57-17.16-19.72-17.16h-11.86V847.8z"/>
		
			<linearGradient id="SVGID_00000043429484157628137520000011284630583535414718_" gradientUnits="userSpaceOnUse" x1="1057.4283" y1="784.6364" x2="1057.4283" y2="922.2751">
			<stop  offset="0" style="stop-color:#FFFFFF"/>
			<stop  offset="1" style="stop-color:#B1B1B1"/>
		</linearGradient>
		<path fill="url(#SVGID_00000043429484157628137520000011284630583535414718_)" d="M1075.32,814.94v107.34h-35.78V814.94h-29.39
			v-30.3h94.56v30.3H1075.32z"/>
	</g>
	<g>
		
			<linearGradient id="SVGID_00000163786325994229946960000009464063287187696779_" gradientUnits="userSpaceOnUse" x1="1157.8103" y1="753.2609" x2="1157.8103" y2="788.5245">
			<stop  offset="0" style="stop-color:#FFFFFF"/>
			<stop  offset="1" style="stop-color:#B1B1B1"/>
		</linearGradient>
		<path fill="url(#SVGID_00000163786325994229946960000009464063287187696779_)" d="M1170.98,765.04c-2.03-1.38-4.08-2.07-6.15-2.07
			c-1.12,0-2.17,0.19-3.14,0.58c-0.97,0.39-1.82,0.94-2.55,1.65c-0.73,0.71-1.31,1.55-1.71,2.52c-0.41,0.97-0.61,2.06-0.61,3.27
			c0,1.16,0.2,2.23,0.61,3.2c0.41,0.97,0.97,1.81,1.68,2.52c0.71,0.71,1.56,1.26,2.55,1.65c0.99,0.39,2.05,0.58,3.17,0.58
			c2.2,0,4.25-0.75,6.15-2.26v9.96c-2.89,1.25-5.63,1.88-8.22,1.88c-2.42,0-4.71-0.41-6.89-1.23c-2.18-0.82-4.1-1.99-5.76-3.53
			c-1.66-1.53-2.99-3.36-3.98-5.5c-0.99-2.14-1.49-4.52-1.49-7.15c0-2.63,0.47-5.04,1.42-7.21c0.95-2.18,2.24-4.05,3.88-5.63
			c1.64-1.57,3.59-2.8,5.86-3.69c2.26-0.88,4.69-1.33,7.28-1.33c2.85,0,5.48,0.6,7.89,1.81V765.04z"/>
	</g>
	<g>
		
			<linearGradient id="SVGID_00000179607509966355202270000001989837187941112743_" gradientUnits="userSpaceOnUse" x1="1162.2687" y1="738.1615" x2="1162.2687" y2="803.6241">
			<stop  offset="0" style="stop-color:#FFFFFF"/>
			<stop  offset="1" style="stop-color:#B1B1B1"/>
		</linearGradient>
		<path fill="url(#SVGID_00000179607509966355202270000001989837187941112743_)" d="M1162.27,803.62
			c-18.05,0-32.73-14.68-32.73-32.73c0-18.05,14.68-32.73,32.73-32.73s32.73,14.68,32.73,32.73
			C1195,788.94,1180.32,803.62,1162.27,803.62z M1162.27,745.41c-14.05,0-25.48,11.43-25.48,25.48c0,14.05,11.43,25.48,25.48,25.48
			c14.05,0,25.48-11.43,25.48-25.48C1187.75,756.84,1176.32,745.41,1162.27,745.41z"/>
	</g>
</g>
<g id="Logo">
	
		<linearGradient id="SVGID_00000178893884306630950690000007925879564874370954_" gradientUnits="userSpaceOnUse" x1="934.8571" y1="359.3944" x2="271.0989" y2="359.3944">
		<stop  offset="0" style="stop-color:#00FC00"/>
		<stop  offset="0.5" style="stop-color:#00EA38"/>
		<stop  offset="1" style="stop-color:#00D674"/>
	</linearGradient>
	<path fill="url(#SVGID_00000178893884306630950690000007925879564874370954_)" d="M592.17,597.16
		c-31.7,66.57-206.25,53.41-206.25,53.41C207.54,586.8,199.38,260.68,635.46,130.74c0,0.01,244.81-69.68,299.4-63.15
		c0,0-413.77,144.53-476.34,282.64c-38.58-6.97-93.08-16.81-102.09-18.42c8.22,3.85,118.05,55.66,119.55,56.35
		c0,0.02-57.98,92.54-64.05,102.91c-0.02,0.02-0.02,0.04-0.02,0.06c-6.4,10.99-13.2,30.53,22.02,39.56
		c5.46,1.88,12.1,3.36,20.21,4.19c0,0,34.52-1.15,123.09-36.58c0,0,0.5-0.17,1.42-0.52C587.95,506.1,619.45,539.86,592.17,597.16z"
		/>
	<path fill="#00D674" d="M872.18,596.08c0.31-2.36,8.59-68.91-27.09-142.99c26.24-11.14,86.97-44.11,106.89-116.75
		C994.92,463.18,875.37,592.66,872.18,596.08z"/>
	
		<linearGradient id="SVGID_00000147919066246392001910000011949148668295311764_" gradientUnits="userSpaceOnUse" x1="711.0356" y1="574.2776" x2="408.7673" y2="520.9795">
		<stop  offset="0" style="stop-color:#00FC00"/>
		<stop  offset="0.123" style="stop-color:#2FFD2F"/>
		<stop  offset="0.3034" style="stop-color:#6DFD6D"/>
		<stop  offset="0.4763" style="stop-color:#A1FEA1"/>
		<stop  offset="0.637" style="stop-color:#CAFECA"/>
		<stop  offset="0.7827" style="stop-color:#E7FFE7"/>
		<stop  offset="0.9085" style="stop-color:#F9FFF9"/>
		<stop  offset="1" style="stop-color:#FFFFFF"/>
	</linearGradient>
	<path fill="url(#SVGID_00000147919066246392001910000011949148668295311764_)" d="M716.34,534.7
		c3.4,107.76-215.31,168.91-330.43,115.88c0,0,174.55,13.16,206.25-53.41c27.28-57.29-4.21-91.06-13.51-99.36
		c30.66-10.74,63.69-42.83,25.92-81.24C632.28,414.31,719.54,459.86,716.34,534.7z"/>
	
		<linearGradient id="SVGID_00000133516699423658881560000007901734700890128820_" gradientUnits="userSpaceOnUse" x1="945.9761" y1="359.9259" x2="841.0674" y2="291.7974">
		<stop  offset="0" style="stop-color:#00F13E"/>
		<stop  offset="0.2159" style="stop-color:#00F528"/>
		<stop  offset="0.4919" style="stop-color:#00F912"/>
		<stop  offset="0.7578" style="stop-color:#00FB04"/>
		<stop  offset="1" style="stop-color:#00FC00"/>
	</linearGradient>
	<path fill="url(#SVGID_00000133516699423658881560000007901734700890128820_)" d="M951.97,336.33
		c-19.91,72.64-80.65,105.62-106.89,116.76c-13-28.67-35.92-59.71-56.99-79.72c63.51-30.96,112.09-86.79,146.43-178.47
		c0.12-0.29,0.22-0.59,0.34-0.89C946,311.53,873.18,364.43,850.15,378.1C875.23,365.95,951.97,336.33,951.97,336.33z"/>
	
		<linearGradient id="SVGID_00000006700940506165509130000015645270945104190857_" gradientUnits="userSpaceOnUse" x1="763.446" y1="382.8363" x2="679.7969" y2="164.9229">
		<stop  offset="0" style="stop-color:#00F13E"/>
		<stop  offset="1" style="stop-color:#00C886"/>
	</linearGradient>
	<path fill="url(#SVGID_00000006700940506165509130000015645270945104190857_)" d="M934.52,194.91c0.1-0.29,0.21-0.58,0.31-0.87
		c-1.77,1.36-90.25,68.93-133.44,73.75c0,0,128.15-54.23,133.46-200.2c0,0-413.76,144.54-476.34,282.66
		c8.26,1.5,39.09,7.06,39.09,7.06c18.7-27.79,32.81-29.16,47.73-25.62c-2.93-5.4-17.41-32.41-17.41-32.41
		c38.18-9.37,83.1-6.15,83.19-6.15l4.65,36.68l7.04-35.57c35.41,2.16,74.63,19.23,74.63,19.23c-0.14,0.59-9.74,31.15-9.92,31.78
		l22.79-25.97c-0.23-0.16,38.79,15.79,77.79,54.11C851.6,342.42,900.19,286.58,934.52,194.91z"/>
	
		<linearGradient id="SVGID_00000034067464362628285780000017441439545738532494_" gradientUnits="userSpaceOnUse" x1="788.2509" y1="373.3248" x2="788.2465" y2="373.3133">
		<stop  offset="0" style="stop-color:#00F13E"/>
		<stop  offset="1" style="stop-color:#00C886"/>
	</linearGradient>
	<path fill="url(#SVGID_00000034067464362628285780000017441439545738532494_)" d="M788.09,373.38c0.09-0.05,0.2-0.07,0.32-0.11
		C788.23,373.33,788.14,373.38,788.09,373.38z"/>
	
		<linearGradient id="SVGID_00000168801772732100145900000016630434733618074247_" gradientUnits="userSpaceOnUse" x1="517.4934" y1="419.101" x2="559.3052" y2="419.101">
		<stop  offset="0" style="stop-color:#00F13E"/>
		<stop  offset="1" style="stop-color:#00C886"/>
	</linearGradient>
	<path fill="url(#SVGID_00000168801772732100145900000016630434733618074247_)" d="M559.31,406.57l-37.52,28.14
		c0,0-11.59-13.79,3.31-25.38C525.1,409.33,539.99,398.29,559.31,406.57z"/>
</g>
</svg>
