<svg id="Calque_1" data-name="Calque 1" xmlns="http://www.w3.org/2000/svg" xmlns:xlink="http://www.w3.org/1999/xlink" viewBox="0 0 354.89 322.28"><defs><style>.cls-1{fill:url(#linear-gradient);}.cls-2{fill:#00d674;}.cls-3{fill:url(#linear-gradient-2);}.cls-4{fill:url(#Dégradé_sans_nom_30);}.cls-5{fill:url(#Dégradé_sans_nom_2);}.cls-6{fill:url(#Dégradé_sans_nom_2-2);}.cls-7{fill:url(#Dégradé_sans_nom_2-3);}</style><linearGradient id="linear-gradient" x1="327.36" y1="161.63" x2="13.93" y2="161.63" gradientUnits="userSpaceOnUse"><stop offset="0" stop-color="#00fc00"/><stop offset="0.5" stop-color="#00ea38"/><stop offset="1" stop-color="#00d674"/></linearGradient><linearGradient id="linear-gradient-2" x1="221.67" y1="263.1" x2="78.94" y2="237.93" gradientUnits="userSpaceOnUse"><stop offset="0" stop-color="#00fc00"/><stop offset="0.12" stop-color="#2ffd2f"/><stop offset="0.3" stop-color="#6dfd6d"/><stop offset="0.48" stop-color="#a1fea1"/><stop offset="0.64" stop-color="#cafeca"/><stop offset="0.78" stop-color="#e7ffe7"/><stop offset="0.91" stop-color="#f9fff9"/><stop offset="1" stop-color="#fff"/></linearGradient><linearGradient id="Dégradé_sans_nom_30" x1="332.61" y1="161.88" x2="283.07" y2="129.71" gradientUnits="userSpaceOnUse"><stop offset="0" stop-color="#00f13e"/><stop offset="0.22" stop-color="#00f528"/><stop offset="0.49" stop-color="#00f912"/><stop offset="0.76" stop-color="#00fb04"/><stop offset="1" stop-color="#00fc00"/></linearGradient><linearGradient id="Dégradé_sans_nom_2" x1="246.42" y1="172.7" x2="206.92" y2="69.8" gradientUnits="userSpaceOnUse"><stop offset="0" stop-color="#00f13e"/><stop offset="1" stop-color="#00c886"/></linearGradient><linearGradient id="Dégradé_sans_nom_2-2" x1="258.13" y1="168.21" x2="258.13" y2="168.2" xlink:href="#Dégradé_sans_nom_2"/><linearGradient id="Dégradé_sans_nom_2-3" x1="130.28" y1="189.83" x2="150.02" y2="189.83" xlink:href="#Dégradé_sans_nom_2"/></defs><path class="cls-1" d="M165.54,273.9c-15,31.44-97.39,25.23-97.39,25.23C-16.08,269-19.94,115,186,53.66c0,0,115.61-32.9,141.38-29.82,0,0-195.38,68.25-224.93,133.47l-48.21-8.7c3.89,1.82,55.75,26.29,56.46,26.61,0,0-27.38,43.7-30.25,48.6v0c-3,5.19-6.23,14.42,10.4,18.69a43.52,43.52,0,0,0,9.54,2s16.3-.54,58.13-17.28l.67-.24C163.55,230.91,178.42,246.85,165.54,273.9Z"/><path class="cls-2" d="M297.76,273.4c.15-1.12,4.06-32.54-12.79-67.53,12.39-5.25,41.07-20.82,50.47-55.13C355.72,210.64,299.27,271.78,297.76,273.4Z"/><path class="cls-3" d="M224.18,244.41c1.6,50.89-101.67,79.76-156,54.72,0,0,82.42,6.21,97.39-25.22,12.88-27.06-2-43-6.38-46.92,14.48-5.07,30.07-20.23,12.24-38.36C184.48,187.57,225.69,209.07,224.18,244.41Z"/><path class="cls-4" d="M335.44,150.74C326,185,297.36,200.61,285,205.88c-6.14-13.54-17-28.2-26.91-37.65,30-14.62,52.93-41,69.14-84.27l.16-.42c5.26,55.49-29.12,80.47-40,86.92C299.2,164.73,335.44,150.74,335.44,150.74Z"/><path class="cls-5" d="M327.2,84l.15-.41c-.84.64-42.62,32.55-63,34.82,0,0,60.51-25.6,63-94.53,0,0-195.38,68.25-224.93,133.47l18.46,3.34c8.82-13.13,15.49-13.77,22.54-12.1-1.39-2.56-8.22-15.31-8.22-15.31,18-4.43,39.23-2.9,39.28-2.9l2.19,17.32,3.33-16.8c16.72,1,35.24,9.08,35.24,9.08-.07.28-4.6,14.71-4.69,15l10.77-12.26c-.11-.07,18.31,7.46,36.73,25.55C288,153.62,311,127.25,327.2,84Z"/><path class="cls-6" d="M258.06,168.23l.15,0Z"/><path class="cls-7" d="M150,183.91,132.31,197.2s-5.47-6.52,1.56-12A17,17,0,0,1,150,183.91Z"/></svg>