<svg xmlns="http://www.w3.org/2000/svg" fill="none" viewBox="0 0 21 24">
    <path fill="#0F0" fill-rule="evenodd" d="M3.084 12.565a.597.597 0 0 1-.577.092l-.578-.201c-.234-.073-.342-.329-.27-.566a.41.41 0 0 1 .27-.274l.578-.201a.644.644 0 0 1 .812.402c.09.274 0 .584-.235.748Z" clip-rule="evenodd"/>
    <path fill="#fff" fill-rule="evenodd" d="M2.958 17.425a.354.354 0 0 1 .109-.474l1.335-.969a.523.523 0 0 1 .74.128c.018.019.018.037.036.037a.541.541 0 0 1-.199.73l-.054.019-1.497.694a.372.372 0 0 1-.47-.165ZM5.16 8.09a.546.546 0 0 1-.342.256.479.479 0 0 1-.415-.092l-1.335-.968a.358.358 0 0 1-.072-.511.342.342 0 0 1 .433-.11l1.497.676c.27.128.38.439.27.713l-.035.036Z" clip-rule="evenodd"/>
    <path fill="url(#b)" d="M6.513 19.451 6.369 24H2.147C.974 24 .018 23.031 0 21.844v-.968c2.237 0 4.474-.475 6.513-1.425Z"/>
    <path fill="#fff" fill-rule="evenodd" d="M17.878 17.425c-.09.164-.288.22-.469.146l-1.497-.694c-.27-.128-.38-.438-.27-.694l.035-.055a.527.527 0 0 1 .722-.2l.036.036 1.335.968c.162.128.198.347.108.493ZM17.77 7.288l-1.335.968a.537.537 0 0 1-.74-.127l-.018-.037c-.144-.256-.072-.584.18-.73.019-.019.037-.019.055-.037l1.497-.676c.18-.091.397 0 .47.183.071.164.035.365-.11.456Z" clip-rule="evenodd"/>
    <path fill="#6F6" fill-rule="evenodd" d="M19.395 12.037a.459.459 0 0 1-.289.42l-.577.201a.639.639 0 0 1-.812-.42.671.671 0 0 1 .397-.822.544.544 0 0 1 .415 0l.577.201a.44.44 0 0 1 .289.42Z" clip-rule="evenodd"/>
    <path fill="url(#c)" d="M5.196 7.671a.618.618 0 0 1-.036.439.546.546 0 0 1-.343.255.479.479 0 0 1-.415-.091l-1.335-.968a.358.358 0 0 1-.072-.511.342.342 0 0 1 .433-.11l1.497.676a.466.466 0 0 1 .27.31Zm0 8.913a.572.572 0 0 1-.289.33l-1.497.693a.36.36 0 0 1-.487-.164.372.372 0 0 1 .126-.457l1.335-.968a.523.523 0 0 1 .74.128c.018.018.018.037.036.037.072.091.09.255.036.401ZM2.49 12.658l-.578-.201c-.234-.073-.342-.33-.27-.567a.41.41 0 0 1 .27-.274l.578-.2c.342-.128.703.054.83.401a.653.653 0 0 1-.397.84h-.018a.797.797 0 0 1-.415 0ZM9.147 0h-3.32c0 3.27-2.616 5.9-5.827 5.9v14.977c2.237 0 4.474-.475 6.513-1.425l.252-7.744c-.45-.22-.775-.84-.775-1.553 0-.803.415-1.46.956-1.607.072-.475.234-.95.487-1.352a.795.795 0 0 1-.577-.383c-.487-.73-1.155-1.48-1.66-2.685a.626.626 0 0 1 .072-.64c.108-.146.307-.164.451-.054.018.018.036.018.036.036.776.75 1.732.987 2.255 1.699.036-.091.09-.164.145-.256.306-.402.83-.548 1.299-.347.18-.603.793-.931 1.389-.767.36.11.65.402.758.767a.99.99 0 0 1 .757-.036 15.76 15.76 0 0 1 2.22-3.233A12.014 12.014 0 0 0 9.146 0Z"/>
    <path fill="#6F6" fill-rule="evenodd" d="M3.084 12.565a.597.597 0 0 1-.577.092l-.578-.201c-.234-.073-.342-.329-.27-.566a.41.41 0 0 1 .27-.274l.578-.201a.644.644 0 0 1 .812.402c.09.274 0 .584-.235.748Z" clip-rule="evenodd"/>
    <path fill="url(#d)" d="m19.088 12.458-.578.2a.639.639 0 0 1-.811-.42.671.671 0 0 1 .396-.821.544.544 0 0 1 .415 0l.578.2c.234.074.342.33.27.567-.036.128-.144.22-.27.274Zm-1.209 4.968c-.09.164-.289.22-.47.146l-1.496-.694a.538.538 0 0 1-.271-.694l.036-.055a.528.528 0 0 1 .722-.2l.036.036 1.335.968c.162.128.198.347.108.493Zm-2.255-9.753a.572.572 0 0 1 .288-.33l1.498-.675c.18-.091.397 0 .469.183a.362.362 0 0 1-.108.438l-1.335.968a.537.537 0 0 1-.74-.128l-.018-.036a.554.554 0 0 1-.054-.42Zm-.054-5.754a9.524 9.524 0 0 0-1.029-.603 15.76 15.76 0 0 0-2.219 3.233c.217.073.397.201.542.384.054.073.108.164.144.256.487-.676 1.353-.84 2.11-1.553a.436.436 0 0 1 .578-.055.423.423 0 0 1 .162.548l-.018.055c-.505 1.187-1.154 1.936-1.66 2.667a.795.795 0 0 1-.595.383c.253.42.415.877.487 1.352.487.128.866.676.938 1.37 0 .073.018.164.018.237 0 .676-.288 1.242-.703 1.498a.136.136 0 0 1-.072.036v.11l.36 10.831c3.934-2.064 6.405-6.174 6.405-10.648C21 7.928 18.961 4.13 15.57 1.92Z"/>
    <path fill="url(#e)" d="M12.756 11.325a.778.778 0 0 1-.036.767c-.505.767-1.227 1.333-2.147 1.333h-.199c-.793-.073-1.623-.584-2.146-1.224a.726.726 0 0 1-.073-.822 2.26 2.26 0 0 0 .307-1.132c0-.365-.09-.73-.27-1.06a.742.742 0 0 1 .036-.748.54.54 0 0 0 .144.146c.379.292.902.31 1.28.018 0 .42.416.749.921.749h.144c.451-.055.776-.365.776-.749.379.292.92.274 1.299-.018l.054-.037a.714.714 0 0 1-.072.603c-.198.347-.307.73-.307 1.114.018.366.109.73.289 1.06Zm3.03-7.672a.185.185 0 0 0-.107-.09.433.433 0 0 0-.56.054c-.757.73-1.623.877-2.11 1.552-.037-.09-.09-.164-.145-.255a1.143 1.143 0 0 0-.541-.384.994.994 0 0 0-.758.037 1.126 1.126 0 0 0-1.389-.767c-.36.11-.65.401-.758.767a1.089 1.089 0 0 0-1.443.602c-.523-.73-1.461-.95-2.255-1.698-.108-.128-.307-.146-.451-.019-.018.019-.036.037-.036.055a.63.63 0 0 0-.072.64C5.666 5.352 6.333 6.1 6.82 6.83a.79.79 0 0 0 .577.384c-.253.42-.415.877-.487 1.352-.542.146-.957.822-.957 1.607 0 .712.325 1.315.776 1.534l-.252 7.745L6.333 24H9.13c1.876 0 3.734-.438 5.394-1.315l.054-.036-.36-10.831v-.11c.035-.018.053-.036.072-.036.414-.256.703-.822.703-1.498 0-.073 0-.164-.018-.237-.072-.695-.451-1.243-.938-1.37a3.574 3.574 0 0 0-.487-1.352.828.828 0 0 0 .595-.384c.487-.73 1.137-1.479 1.66-2.666l.018-.055a.388.388 0 0 0-.036-.457Z"/>
    <path fill="url(#f)" d="M5.827 0c0 3.27-2.616 5.9-5.827 5.9V2.174C0 .968.956 0 2.147 0h3.68Z"/>
    <path fill="#6F6" fill-rule="evenodd" d="m11.582 10.448-.595.566a.38.38 0 0 0-.108.183c-.037.164-.127.475-.18.785a.176.176 0 0 1-.181.146.176.176 0 0 1-.18-.146l-.2-.785a.38.38 0 0 0-.107-.183l-.596-.566a.178.178 0 0 1 0-.256.204.204 0 0 1 .145-.055l.902.128h.126l.83-.11c.072 0 .144.037.18.11.036.037.018.128-.036.183Zm.902-.2c0-.384.108-.786.307-1.115a.707.707 0 0 0 .054-.603l-.036.037c-.379.292-.902.31-1.281.018 0 .365-.343.694-.776.73h-.144c-.505 0-.92-.328-.92-.748a1.02 1.02 0 0 1-1.281-.019c-.054-.036-.09-.09-.144-.146a.702.702 0 0 0-.037.75c.18.328.271.712.271 1.077a2.2 2.2 0 0 1-.307 1.114.726.726 0 0 0 .073.822c.523.62 1.353 1.15 2.128 1.224h.199c.92 0 1.642-.585 2.147-1.334a.742.742 0 0 0 .036-.748 1.946 1.946 0 0 1-.289-1.06Z" clip-rule="evenodd"/>
    <path fill="#000" fill-rule="evenodd" d="m11.582 10.447-.596.566a.38.38 0 0 0-.108.183c-.036.165-.126.475-.18.786a.176.176 0 0 1-.18.146.176.176 0 0 1-.181-.146l-.198-.786a.38.38 0 0 0-.109-.183l-.595-.566a.178.178 0 0 1 0-.255.204.204 0 0 1 .144-.055l.902.128h.127l.83-.11c.072 0 .144.037.18.11.036.036.018.127-.036.182Z" clip-rule="evenodd"/>

  <defs>
    <linearGradient id="b" x1="3.852" x2="3.395" y1="25.652" y2="21.964" gradientUnits="userSpaceOnUse">
      <stop offset=".29" stop-color="#6F0"/>
      <stop offset="1" stop-color="#6F6"/>
    </linearGradient>
    <linearGradient id="c" x1="9.607" x2=".624" y1="-2.473" y2="20.386" gradientUnits="userSpaceOnUse">
      <stop offset=".29" stop-color="#090"/>
      <stop offset="1" stop-color="#060"/>
    </linearGradient>
    <linearGradient id="d" x1="14.062" x2="17.112" y1="23.859" y2="6.637" gradientUnits="userSpaceOnUse">
      <stop offset=".29" stop-color="#090"/>
      <stop offset="1" stop-color="#060"/>
    </linearGradient>
    <linearGradient id="e" x1="10.512" x2="10.512" y1="29.684" y2="13.679" gradientUnits="userSpaceOnUse">
      <stop offset=".29" stop-color="#9F9"/>
      <stop offset="1" stop-color="#fff"/>
    </linearGradient>
    <linearGradient id="f" x1="6.271" x2=".731" y1="5.065" y2="1.663" gradientUnits="userSpaceOnUse">
      <stop offset=".29" stop-color="#6F3"/>
      <stop offset="1" stop-color="#6F6"/>
    </linearGradient>
  </defs>
</svg>