<svg width="44" height="44" viewBox="0 0 44 44" fill="none" xmlns="http://www.w3.org/2000/svg">
  <rect x="2" y="2" width="24" height="34" rx="4" fill="#B284FF"/>
  <path d="M12.9905 8.95704C12.7306 9.4671 12.6132 10.0342 12.5562 10.7321C12.5 11.4195 12.5 12.2764 12.5 13.3774V13.4V34.6V34.6226C12.5 35.7236 12.5 36.5805 12.5562 37.2679C12.6132 37.9658 12.7306 38.5329 12.9905 39.043C13.4219 39.8897 14.1103 40.5781 14.957 41.0095C15.4671 41.2694 16.0342 41.3868 16.7321 41.4438C17.4195 41.5 18.2764 41.5 19.3774 41.5H19.4H31.6H31.6226C32.7236 41.5 33.5805 41.5 34.2679 41.4438C34.9658 41.3868 35.5329 41.2694 36.043 41.0095C36.8897 40.5781 37.5781 39.8897 38.0095 39.043C38.2694 38.5329 38.3868 37.9658 38.4438 37.2679C38.5 36.5805 38.5 35.7236 38.5 34.6226V34.6V18.651L38.5 18.5823C38.5001 17.6693 38.5001 17.1248 38.3757 16.6064C38.2654 16.1472 38.0836 15.7082 37.8369 15.3056C37.5583 14.851 37.1732 14.466 36.5276 13.8205L36.479 13.7719L31.2281 8.52096L31.1795 8.4724C30.534 7.8268 30.149 7.44168 29.6944 7.16312C29.2918 6.91639 28.8528 6.73457 28.3937 6.62434C27.8752 6.49988 27.3306 6.49992 26.4177 6.5L26.349 6.5H19.4H19.3774C18.2764 6.5 17.4195 6.5 16.7321 6.55616C16.0342 6.61318 15.4671 6.73058 14.957 6.99047C14.1103 7.4219 13.4219 8.11031 12.9905 8.95704Z" fill="#D482DB" fill-opacity="0.6" stroke="url(#paint0_linear_2016_24896)"/>
  <path d="M30.6432 17.9857C31.9022 17.998 33.6524 18.0032 35.1372 17.998C35.8976 17.9962 36.2842 17.1159 35.7567 16.5857C33.8493 14.6641 30.4373 11.2251 28.4847 9.25805C27.9447 8.71377 27 9.08829 27 9.84257V14.4558C27 16.3914 28.6455 17.9857 30.6432 17.9857Z" fill="url(#paint1_linear_2016_24896)"/>
  <path d="M17 35C17 34.4477 17.4477 34 18 34H27C27.5523 34 28 34.4477 28 35C28 35.5523 27.5523 36 27 36H18C17.4477 36 17 35.5523 17 35Z" fill="white"/>
  <path d="M17 23C17 22.4477 17.4477 22 18 22H23C23.5523 22 24 22.4477 24 23C24 23.5523 23.5523 24 23 24H18C17.4477 24 17 23.5523 17 23Z" fill="white"/>
  <path d="M17 29C17 28.4477 17.4477 28 18 28H33C33.5523 28 34 28.4477 34 29C34 29.5523 33.5523 30 33 30H18C17.4477 30 17 29.5523 17 29Z" fill="white"/>
  <defs>
    <linearGradient id="paint0_linear_2016_24896" x1="14.4571" y1="10.961" x2="43.169" y2="36.5003" gradientUnits="userSpaceOnUse">
      <stop stop-color="white" stop-opacity="0.8"/>
      <stop offset="1" stop-color="white" stop-opacity="0"/>
    </linearGradient>
    <linearGradient id="paint1_linear_2016_24896" x1="35.3619" y1="10.6252" x2="25.3368" y2="10.9521" gradientUnits="userSpaceOnUse">
      <stop stop-color="white"/>
      <stop offset="1" stop-color="white" stop-opacity="0.2"/>
    </linearGradient>
  </defs>
</svg>