<svg xmlns="http://www.w3.org/2000/svg" fill="none" viewBox="0 0 16 16">
  <path fill="#fff" d="M3.825 7.648a.609.609 0 0 1 .371-.558.594.594 0 0 1 .23-.045l.998.003c.159 0 .311.064.423.177a.607.607 0 0 1 .176.428v3.803c.112-.034.257-.07.414-.107a.498.498 0 0 0 .385-.49V6.14c0-.16.064-.314.176-.428a.597.597 0 0 1 .424-.177h1a.6.6 0 0 1 .423.177.607.607 0 0 1 .176.428v4.378s.25-.102.493-.206a.501.501 0 0 0 .306-.464v-5.22c0-.16.063-.314.176-.427a.597.597 0 0 1 .423-.177h1c.159 0 .311.063.423.177a.607.607 0 0 1 .176.427v4.299c.866-.634 1.744-1.395 2.44-2.31a1.019 1.019 0 0 0 .154-.948 7.13 7.13 0 0 0-1.505-2.518 7.057 7.057 0 0 0-2.386-1.69 7.005 7.005 0 0 0-5.704.069 7.061 7.061 0 0 0-2.345 1.746A7.133 7.133 0 0 0 1.227 5.83a7.175 7.175 0 0 0 .6 5.721.896.896 0 0 0 .851.445c.189-.017.424-.04.704-.073a.498.498 0 0 0 .443-.5V7.648Z"/>
  <path fill="#979695" d="M3.556 13.677a7.103 7.103 0 0 0 7.582.617 7.36 7.36 0 0 0 2.901-2.76 7.649 7.649 0 0 0 1.053-4.425c-2.658 4.08-7.567 5.987-11.536 6.567"/>
</svg>