<svg width="44" height="44" viewBox="0 0 44 44" fill="none" xmlns="http://www.w3.org/2000/svg">
  <path d="M15.5004 3.41847C18.9698 3.41847 22.2972 4.79669 24.7504 7.24994C27.2037 9.7032 28.5819 13.0305 28.5819 16.4999C28.5819 19.9694 27.2037 23.2967 24.7504 25.7499C22.2972 28.2032 18.9698 29.5814 15.5004 29.5814L15.5004 16.4999L15.5004 3.41847Z" fill="url(#paint0_linear_3009_25446)"/>
  <path d="M15.4996 29.5815C12.0302 29.5815 8.70284 28.2033 6.24958 25.7501C3.79633 23.2968 2.41811 19.9695 2.41811 16.5001C2.41811 13.0306 3.79633 9.70331 6.24958 7.25006C8.70283 4.7968 12.0302 3.41858 15.4996 3.41858L15.4996 16.5001L15.4996 29.5815Z" fill="url(#paint1_linear_3009_25446)"/>
  <circle cx="15.5" cy="16.5" r="15" stroke="url(#paint2_linear_3009_25446)"/>
  <path fill-rule="evenodd" clip-rule="evenodd" d="M31 17.6667C28.5838 17.6667 26.625 19.6565 26.625 22.1111V26H24V22.1111C24 18.1838 27.134 15 31 15C34.866 15 38 18.1838 38 22.1111V26H35.375V22.1111C35.375 19.6565 33.4162 17.6667 31 17.6667Z" fill="white"/>
  <rect opacity="0.9" x="19.5" y="25.5" width="23" height="17" rx="4.5" fill="url(#paint3_linear_3009_25446)" stroke="url(#paint4_linear_3009_25446)"/>
  <path d="M29.5 32C29.5 31.1716 30.1716 30.5 31 30.5C31.8284 30.5 32.5 31.1716 32.5 32V35C32.5 35.8284 31.8284 36.5 31 36.5C30.1716 36.5 29.5 35.8284 29.5 35V32Z" fill="url(#paint5_linear_3009_25446)" stroke="url(#paint6_linear_3009_25446)"/>
  <defs>
    <linearGradient id="paint0_linear_3009_25446" x1="7.1435" y1="5.2734" x2="31.0044" y2="28.1279" gradientUnits="userSpaceOnUse">
      <stop stop-color="#0057FF"/>
      <stop offset="1" stop-color="#56E1FF" stop-opacity="0.8"/>
    </linearGradient>
    <linearGradient id="paint1_linear_3009_25446" x1="23.8565" y1="27.7266" x2="-0.00438746" y2="4.87208" gradientUnits="userSpaceOnUse">
      <stop stop-color="#71FEC3"/>
      <stop offset="1" stop-color="#E7FF56" stop-opacity="0.8"/>
    </linearGradient>
    <linearGradient id="paint2_linear_3009_25446" x1="4.93469" y1="4.61154" x2="24.7094" y2="29.103" gradientUnits="userSpaceOnUse">
      <stop stop-color="white"/>
      <stop offset="1" stop-color="white" stop-opacity="0"/>
    </linearGradient>
    <linearGradient id="paint3_linear_3009_25446" x1="42" y1="27.0909" x2="25.2355" y2="44.0214" gradientUnits="userSpaceOnUse">
      <stop stop-color="#A0A0A0"/>
      <stop offset="1" stop-color="#2E2E2E"/>
    </linearGradient>
    <linearGradient id="paint4_linear_3009_25446" x1="22.5" y1="26.9733" x2="34.6101" y2="47.2366" gradientUnits="userSpaceOnUse">
      <stop stop-color="white" stop-opacity="0.5"/>
      <stop offset="1" stop-color="white" stop-opacity="0"/>
    </linearGradient>
    <linearGradient id="paint5_linear_3009_25446" x1="32.7164" y1="31.6854" x2="30.2958" y2="31.1493" gradientUnits="userSpaceOnUse">
      <stop stop-color="white"/>
      <stop offset="1" stop-color="white" stop-opacity="0.2"/>
      <stop offset="1" stop-color="white" stop-opacity="0"/>
      </linearGradient>
      <linearGradient id="paint6_linear_3009_25446" x1="29.6367" y1="31.0873" x2="34.6811" y2="33.7649" gradientUnits="userSpaceOnUse">
      <stop stop-color="white" stop-opacity="0.8"/>
      <stop offset="1" stop-color="white" stop-opacity="0.2"/>
    </linearGradient>
  </defs>
</svg>