<svg width="44" height="44" viewBox="0 0 44 44" fill="none" xmlns="http://www.w3.org/2000/svg">
  <path fill-rule="evenodd" clip-rule="evenodd" d="M17 10C10.3723 10 5 15.3723 5 22C5 28.6263 10.3726 34 17 34C23.6274 34 29 28.6263 29 22C29 15.3723 23.6277 10 17 10ZM17 6C8.1632 6 0.999998 13.1632 0.999998 22C0.999997 30.8352 8.1632 38 17 38C25.8368 38 33 30.8352 33 22C33 13.1632 25.8368 6 17 6Z" fill="url(#paint0_linear_2261_31734)"/>
  <circle cx="31" cy="22" r="12.5" fill="url(#paint1_linear_2261_31734)" stroke="url(#paint2_linear_2261_31734)"/>
  <circle cx="31" cy="22" r="3.5" fill="url(#paint3_linear_2261_31734)" stroke="url(#paint4_linear_2261_31734)"/>
  <defs>
    <linearGradient id="paint0_linear_2261_31734" x1="33.0934" y1="38.2176" x2="-0.78289" y2="9.52603" gradientUnits="userSpaceOnUse">
      <stop stop-color="#00F8DA"/>
      <stop offset="1" stop-color="#00C85D"/>
    </linearGradient>
    <linearGradient id="paint1_linear_2261_31734" x1="42.1566" y1="13.6951" x2="19.5" y2="36.3518" gradientUnits="userSpaceOnUse">
      <stop stop-color="#FFDE8A"/>
      <stop offset="1" stop-color="#56FFA2" stop-opacity="0.4"/>
    </linearGradient>
    <linearGradient id="paint2_linear_2261_31734" x1="22.1388" y1="12.029" x2="38.724" y2="32.5702" gradientUnits="userSpaceOnUse">
      <stop stop-color="white"/>
      <stop offset="1" stop-color="white" stop-opacity="0"/>
    </linearGradient>
    <linearGradient id="paint3_linear_2261_31734" x1="34.4328" y1="19.4446" x2="23.3621" y2="19.6072" gradientUnits="userSpaceOnUse">
      <stop stop-color="white"/>
      <stop offset="1" stop-color="#01D98A"/>
    </linearGradient>
    <linearGradient id="paint4_linear_2261_31734" x1="28.2735" y1="18.932" x2="33.3766" y2="25.2524" gradientUnits="userSpaceOnUse">
      <stop stop-color="white"/>
      <stop offset="1" stop-color="white" stop-opacity="0"/>
    </linearGradient>
  </defs>
</svg>