<svg width="44" height="44" viewBox="0 0 44 44" fill="none" xmlns="http://www.w3.org/2000/svg">
  <path d="M41 22C41 32.4934 32.4934 41 22 41C11.5066 41 3 32.4934 3 22C3 11.5066 11.5066 3 22 3C32.4934 3 41 11.5066 41 22Z" fill="url(#paint0_linear_3_460)"/>
  <path fill-rule="evenodd" clip-rule="evenodd" d="M43 22C43 33.598 33.598 43 22 43C10.402 43 1 33.598 1 22C1 10.402 10.402 1 22 1C33.598 1 43 10.402 43 22Z" fill="url(#paint1_linear_3_460)"/>
  <path d="M21.5479 33.1799C20.3748 29.7417 22.2322 27.6405 23.3075 27.0197L21.5479 20C18.4197 20.4775 12.0166 22.6073 11.4301 27.3063C10.6969 33.1799 14.2161 37.3345 18.6151 38.3373C22.1343 39.1395 26.3378 38.2895 27.9997 37.7642C26.3379 37.6687 22.721 36.6182 21.5479 33.1799Z" fill="url(#paint2_linear_3_460)"/>
  <path fill-rule="evenodd" clip-rule="evenodd" d="M27.6254 17.2187L36.766 15.3906L29.1722 19.3281C30.3441 21.2031 32.8847 25.2625 33.6722 26.5C34.6566 28.0469 33.8129 29.5937 31.141 29.4531C28.4691 29.3125 23.1254 27.9062 20.7347 25.375C18.8222 23.35 20.2191 21.625 21.1566 21.0156C18.4378 21.625 13.0566 24.1375 13.2816 29.3125C13.5066 34.4875 18.8024 37.8229 21.3337 38.6667C15.1097 38.6667 6.66699 32.3333 5.66699 24C7.49512 18.7969 10.0472 16.5156 14.1253 14.125C14.4628 14.4625 15.2972 15.3906 15.6722 15.8125L15.1097 13.7031L19.891 12.2969L20.3128 14.6875L21.016 12.4375C22.0472 12.3906 24.5035 12.4094 26.0785 12.8594C25.966 13.1969 25.2816 14.4062 24.9535 14.9687C25.6097 14.9219 27.0629 15.3062 27.6254 17.2187ZM23.8281 20.875L26.2188 22.8437C26.5 22.5156 26.8937 21.6906 26.2188 21.0156C25.5438 20.3406 24.3438 20.6406 23.8281 20.875Z" fill="white"/>
  <defs>
    <linearGradient id="paint0_linear_3_460" x1="3" y1="22" x2="41" y2="22" gradientUnits="userSpaceOnUse">
      <stop stop-color="#6F18FF"/>
      <stop offset="1" stop-color="#6CCCFF"/>
    </linearGradient>
    <linearGradient id="paint1_linear_3_460" x1="9.04898" y1="7.42705" x2="33.2889" y2="37.4488" gradientUnits="userSpaceOnUse">
      <stop stop-color="white" stop-opacity="0.25"/>
      <stop offset="1" stop-color="white" stop-opacity="0"/>
    </linearGradient>
    <linearGradient id="paint2_linear_3_460" x1="12.0662" y1="34.1827" x2="26.8762" y2="34.1827" gradientUnits="userSpaceOnUse">
      <stop stop-color="#57B6E3"/>
      <stop offset="1" stop-color="#ACE0FC"/>
    </linearGradient>
  </defs>
</svg>