<svg xmlns="http://www.w3.org/2000/svg" fill="#E49E35" viewBox="0 0 24 24">
    <path d="M7.743 20.605h8.575c0 1.94-1.634 3.395-3.65 3.395h-1.276c-2.015 0-3.649-1.455-3.649-3.395Z" />
    <path fill-rule="evenodd"
        d="M16.34 18.498c.155-1.536 1.133-2.781 2.243-3.927C20.083 13.023 21 10.947 21 8.663 21 3.88 16.97 0 12 0S3 3.879 3 8.663c0 2.299.93 4.388 2.447 5.939 1.111 1.136 2.093 2.37 2.268 3.896h8.624ZM13.197 2.626c-.56-.103-1.102.25-1.21.79-.107.54.26 1.061.82 1.165 1.71.316 3.058 1.62 3.377 3.27.104.54.644.896 1.205.796.562-.1.932-.62.828-1.16-.474-2.455-2.475-4.39-5.02-4.86Z"
        clip-rule="evenodd" />
</svg>