<svg width="24" height="24" viewBox="0 0 24 24" fill="none" xmlns="http://www.w3.org/2000/svg">
    <path fill-rule="evenodd" clip-rule="evenodd"
        d="M0.345215 10.9745V13.0255C0.345215 14.2375 1.3358 15.2398 2.55946 15.2398C4.66881 15.2398 5.5312 16.7315 4.4707 18.5611C3.86469 19.61 4.22596 20.9735 5.28647 21.5795L7.30259 22.7332C8.22325 23.281 9.41195 22.9547 9.95968 22.034L10.0879 21.8126C11.1484 19.9829 12.8732 19.9829 13.922 21.8126L14.0502 22.034C14.5979 22.9547 15.7866 23.281 16.7073 22.7332L18.7234 21.5795C19.7839 20.9735 20.1452 19.6216 19.5392 18.5611C18.4787 16.7315 19.3411 15.2398 21.4504 15.2398C22.6741 15.2398 23.6647 14.2375 23.6647 13.0255V10.9745C23.6647 9.7508 22.6624 8.76022 21.4504 8.76022C19.3411 8.76022 18.4787 7.26852 19.5392 5.43886C20.1452 4.39 19.7839 3.0265 18.7234 2.4205L16.7073 1.26676C15.7866 0.719026 14.5979 1.04534 14.0502 1.96599L13.922 2.18742C12.8615 4.01708 11.1367 4.01708 10.0879 2.18742L9.95968 1.96599C9.41195 1.04534 8.22325 0.719026 7.30259 1.26676L5.28647 2.4205C4.22596 3.0265 3.86469 4.39 4.4707 5.43886C5.5312 7.26852 4.66881 8.76022 2.55946 8.76022C1.3358 8.76022 0.345215 9.76245 0.345215 10.9745ZM15.7865 12.0004C15.7865 14.0922 14.0907 15.7879 11.9989 15.7879C9.90716 15.7879 8.21143 14.0922 8.21143 12.0004C8.21143 9.90862 9.90716 8.21289 11.9989 8.21289C14.0907 8.21289 15.7865 9.90862 15.7865 12.0004Z"
        fill="#0675FF" />
</svg>