<svg xmlns="http://www.w3.org/2000/svg" fill="none" viewBox="0 0 62 63">
    <path fill="#FFCB4C" 
        d="M31 60.44c16.268 0 29.456-13.187 29.456-29.455S47.268 1.53 31 1.53c-16.267 0-29.455 13.187-29.455 29.455S14.733 60.441 31 60.441Z" />
    <path fill="#65471B"
        d="M25.284 37.593a1.502 1.502 0 0 1-.513-.764c-.22-.756.214-1.51.97-1.678 7.447-1.68 12.46 2.24 12.672 2.409.632.503.755 1.39.285 1.981-.47.589-1.362.66-1.991.16-.181-.138-4.15-3.163-10.166-1.806-.45.1-.911-.026-1.257-.303Zm-2.31-11.85c1.93 0 3.494-1.956 3.494-4.368 0-2.412-1.564-4.368-3.494-4.368-1.93 0-3.494 1.956-3.494 4.368 0 2.412 1.564 4.368 3.494 4.368Zm18.51 1.747c1.93 0 3.494-1.956 3.494-4.369 0-2.412-1.564-4.367-3.494-4.367-1.93 0-3.495 1.955-3.495 4.367 0 2.413 1.565 4.368 3.495 4.368Z" />
    <path fill="#F19020"
        d="M29.81 60.8s2.08-.675 2.35-2.223c.284-1.598-1.027-1.919-1.027-1.919s1.712-.342 1.928-2.263c.202-1.81-1.416-2.24-1.416-2.24s1.595-.659 1.67-2.532c.063-1.577-1.636-2.348-1.636-2.348s8.285-2.008 9.137-2.205c.848-.197 2.17-1.011 1.758-2.786-.41-1.776-1.98-1.838-2.79-1.65-.813.19-11.091 2.576-14.636 3.401l-2.367.55c-.888.209-1.29-.181-.664-.842.835-.882 1.37-1.857 1.555-3.475.196-1.702-.381-3.804-.712-4.62-.615-1.514-1.652-2.71-2.851-3.122-1.87-.641-3.199.528-2.536 2.567.993 3.049.342 5.55-1.37 7.06-4.027 3.547-5.9 6.076-4.653 11.466 1.361 5.88 7.197 9.663 13.076 8.301l5.183-1.12Z" />
    <path fill="#65471B"
        d="M16.686 13.444a1.52 1.52 0 0 1-.643-.656c-.355-.704-.065-1.525.647-1.829 7.015-3.01 12.66-.07 12.897.056.712.38 1 1.228.643 1.898-.355.666-1.217.898-1.929.523-.202-.104-4.657-2.355-10.324.077-.422.18-.9.14-1.29-.07Zm19.956 6.166a1.52 1.52 0 0 1-.596-.697c-.307-.727.038-1.524.77-1.782 7.204-2.526 12.638.789 12.864.932.683.428.913 1.294.514 1.937-.398.642-1.277.814-1.959.392-.197-.119-4.484-2.666-10.306-.624a1.52 1.52 0 0 1-1.287-.158Z" />
</svg>