<svg xmlns="http://www.w3.org/2000/svg" fill="none" viewBox="0 0 24 22">
    <path fill="#FFC805" stroke="#14161D"
        d="m5.873 13.728.335-.371-.335.371a.5.5 0 0 1 .154.475L4.923 19.41c-.27 1.27 1.092 2.26 2.217 1.61l4.61-2.659a.5.5 0 0 1 .5 0l4.61 2.66c1.125.648 2.486-.341 2.217-1.611l-1.104-5.207a.5.5 0 0 1 .154-.475l3.954-3.563c.964-.869.444-2.47-.847-2.606L15.941 7a.5.5 0 0 1-.404-.293L13.37 1.845c-.528-1.185-2.211-1.185-2.74 0L8.463 6.707A.5.5 0 0 1 8.059 7l-5.293.56c-1.291.135-1.811 1.736-.847 2.605l3.954 3.563Z" />
</svg>