<svg xmlns="http://www.w3.org/2000/svg" fill="none" viewBox="0 0 70 70">
  <path fill="#fff" d="M59.655 59.917a34.347 34.347 0 0 1-11.41 7.57 34.309 34.309 0 0 1-13.455 2.507 33.656 33.656 0 0 1-13.375-2.492 33.694 33.694 0 0 1-11.3-7.585A33.494 33.494 0 0 1 2.493 48.61 33.533 33.533 0 0 1 .008 35.2c0-10.06 3.369-18.44 10.106-25.141a33.693 33.693 0 0 1 11.304-7.571A33.656 33.656 0 0 1 34.79.007a34.31 34.31 0 0 1 13.452 2.495 34.347 34.347 0 0 1 11.413 7.556c6.892 6.7 10.339 15.08 10.339 25.14a33.196 33.196 0 0 1-2.565 13.452 33.156 33.156 0 0 1-7.774 11.267Z"/>
  <path fill="#8A92B2" d="M35 9 19.207 35.913 35 28.538V9Z"/>
  <path fill="#62688F" d="m35 28.538-15.793 7.375L35 45.495V28.538ZM35 9v19.538l15.778 7.375L35 9Z"/>
  <path fill="#454A75" d="M35 28.538v16.957l15.778-9.582L35 28.538Z"/>
  <path fill="#8A92B2" d="M19.207 38.985 35 61.844v-13.27l-15.793-9.59Z"/>
  <path fill="#62688F" d="M50.793 38.985 35 48.575v13.269l15.793-22.86Z"/>
</svg>