<svg version="1.1" id="Layer_1" xmlns="http://www.w3.org/2000/svg" xmlns:xlink="http://www.w3.org/1999/xlink" x="0px" y="0px"
	 width="100%" viewBox="0 0 360 360" enable-background="new 0 0 360 360" xml:space="preserve">
<path fill="#FF0420" opacity="1.000000" stroke="none" 
	d="
M244.000000,361.000000 
	C162.694733,361.000000 81.889465,361.000000 1.084198,361.000000 
	C1.056136,360.861450 1.003472,360.722931 1.003468,360.584381 
	C0.999975,240.792648 1.000000,121.000916 1.000000,1.104593 
	C120.888527,1.104593 240.777176,1.104593 360.832916,1.104593 
	C360.832916,120.999809 360.832916,240.999893 360.832916,361.000000 
	C322.139557,361.000000 283.319794,361.000000 244.000000,361.000000 
M132.999313,290.596039 
	C154.638092,299.852234 177.017670,302.717346 200.355789,299.150024 
	C267.575226,288.875336 313.586578,220.329147 297.499390,154.158401 
	C278.653015,76.638374 194.907013,38.697071 124.236519,75.661293 
	C80.932358,98.311562 55.019592,149.367798 62.650597,197.404358 
	C69.508827,240.576370 93.003700,271.379272 132.999313,290.596039 
z"/>
<path fill="#FFFDFD" opacity="1.000000" stroke="none" 
	d="
M132.664963,290.418152 
	C93.003700,271.379272 69.508827,240.576370 62.650597,197.404358 
	C55.019592,149.367798 80.932358,98.311562 124.236519,75.661293 
	C194.907013,38.697071 278.653015,76.638374 297.499390,154.158401 
	C313.586578,220.329147 267.575226,288.875336 200.355789,299.150024 
	C177.017670,302.717346 154.638092,299.852234 132.664963,290.418152 
M213.742889,72.733177 
	C203.391571,68.352180 192.607452,66.292221 180.822632,66.235085 
	C180.822632,84.756073 180.822632,102.824982 180.822632,120.870689 
	C128.347977,121.879555 88.477394,165.839554 94.100426,217.937042 
	C99.345619,266.533905 141.933258,296.615082 180.950745,295.242096 
	C180.950745,277.187592 180.950745,259.105530 180.950745,241.101562 
	C184.613373,240.734634 187.754654,240.414200 190.897156,240.105972 
	C232.442413,236.030975 266.760162,199.366867 267.997131,157.732529 
	C269.123962,119.805801 249.673233,88.984787 213.742889,72.733177 
z"/>
<path fill="#FF0521" opacity="1.000000" stroke="none" 
	d="
M214.112854,72.834282 
	C249.673233,88.984787 269.123962,119.805801 267.997131,157.732529 
	C266.760162,199.366867 232.442413,236.030975 190.897156,240.105972 
	C187.754654,240.414200 184.613373,240.734634 180.950745,241.101562 
	C180.950745,259.105530 180.950745,277.187592 180.950745,295.242096 
	C141.933258,296.615082 99.345619,266.533905 94.100426,217.937042 
	C88.477394,165.839554 128.347977,121.879555 180.822632,120.870689 
	C180.822632,102.824982 180.822632,84.756073 180.822632,66.235085 
	C192.607452,66.292221 203.391571,68.352180 214.112854,72.834282 
M173.767258,210.763702 
	C176.058075,214.477066 178.348892,218.190414 181.013702,222.510025 
	C190.288345,203.827988 204.068146,190.438416 222.568848,180.931976 
	C203.670258,171.499481 190.222839,157.753098 180.757172,139.211227 
	C171.368484,158.200607 157.480118,171.503616 139.123108,181.093002 
	C153.535187,188.338516 164.679688,197.825638 173.767258,210.763702 
z"/>
<path fill="#FFFCFD" opacity="1.000000" stroke="none" 
	d="
M173.553131,210.472916 
	C164.679688,197.825638 153.535187,188.338516 139.123108,181.093002 
	C157.480118,171.503616 171.368484,158.200607 180.757172,139.211227 
	C190.222839,157.753098 203.670258,171.499481 222.568848,180.931976 
	C204.068146,190.438416 190.288345,203.827988 181.013702,222.510025 
	C178.348892,218.190414 176.058075,214.477066 173.553131,210.472916 
z"/>
</svg>