<svg xmlns="http://www.w3.org/2000/svg" fill="none" viewBox="0 0 70 70">
  <path fill="#863FF8" d="M35 70c19.33 0 35-15.67 35-35S54.33 0 35 0 0 15.67 0 35s15.67 35 35 35Z"/>
  <path fill="#fff" d="M26.868 14.517a3.685 3.685 0 0 0-3.762 0l-9.277 5.501A3.747 3.747 0 0 0 12 23.243v11.044c0 1.325.696 2.552 1.83 3.224l9.275 5.502a3.685 3.685 0 0 0 3.763 0l19.145-11.355 8.04 4.768v9.618l-8.04 4.768-8.04-4.768v-6.056l-4.947 3.118v3.651c0 1.326.696 2.553 1.83 3.225l9.276 5.502a3.685 3.685 0 0 0 3.763 0l9.276-5.502A3.747 3.747 0 0 0 59 46.757V35.713a3.747 3.747 0 0 0-1.83-3.224l-9.276-5.502a3.685 3.685 0 0 0-3.762 0L24.987 38.342l-8.04-4.768v-9.618l8.04-4.768 8.04 4.768v6.056l4.947-3.118v-3.651a3.747 3.747 0 0 0-1.83-3.225l-9.276-5.502Z"/>
</svg>