<svg xmlns="http://www.w3.org/2000/svg" fill="none" viewBox="0 0 70 70">
  <path fill="#2D374B" d="m35 3 27.713 16v32l-14.607 9.5L35.5 68h-5L5.787 54l1.5-35L35 3Z"/>
  <path fill="#28A0F0" d="m62.06 44.932.007 4.41a2.147 2.147 0 0 1-.791 1.56l-4.84 2.803-13.375-21.632 5.144-8.722L62.06 44.932ZM45.024 60.32l-9.656-15.153 5.895-10.002 12.68 19.987-8.92 5.169Z"/>
  <path fill="#fff" d="m4.005 52.98 6.827 3.934L33.56 20.467l-3.857-.1c-3.286-.046-6.826.808-8.451 3.46L8.345 43.832l-4.34 6.671v2.478Zm32.506-32.477 10.165-.037-25.126 42.62-8.039-4.63 23-37.953Z"/>
  <path fill="#96BEDC" d="M66.349 20.414a6.476 6.476 0 0 0-3.04-5.206L38.037.675a6.574 6.574 0 0 0-5.799 0c-.21.106-24.577 14.238-24.577 14.238a6.5 6.5 0 0 0-2.878 2.721A6.425 6.425 0 0 0 4 20.401v30.1l4.34-6.672-.034-23.223a2.157 2.157 0 0 1 .894-1.614c.115-.082 24.897-14.427 24.975-14.466a2.2 2.2 0 0 1 1.907-.01l24.945 14.35a2.145 2.145 0 0 1 .993 1.71v28.769a2.095 2.095 0 0 1-.746 1.56l-4.839 2.803-2.494 1.447-8.92 5.169-9.045 5.242a2.19 2.19 0 0 1-1.54-.03L23.735 59.38l-2.186 3.707 9.617 5.537.835.472c.36.2.605.337.691.379a6.249 6.249 0 0 0 2.553.525 6.43 6.43 0 0 0 2.355-.443l26.272-15.215a6.423 6.423 0 0 0 2.476-4.838v-29.09Z"/>
</svg>