<svg xmlns="http://www.w3.org/2000/svg" fill="none" viewBox="0 0 64 65">
  <path fill="#fff" d="M0 .882h64v64H0z"/>
  <path fill="#2D313D" d="M15.217 23.496v18.592c0 1.045.187 2.016.56 2.912.411.896.952 1.68 1.624 2.352a8.27 8.27 0 0 0 2.296 1.624 7.08 7.08 0 0 0 2.744.56c.374 0 .896-.075 1.568-.224.71-.15 1.774-.597 3.192-1.344V37.384h3.136v12.6c-2.128 1.12-3.882 1.83-5.264 2.128-1.344.299-2.277.448-2.8.448-1.493 0-2.874-.299-4.144-.896a10.827 10.827 0 0 1-3.248-2.408 12.318 12.318 0 0 1-2.128-3.584 13.081 13.081 0 0 1-.728-4.368V23.496c.15-3.51 1.158-6.253 3.024-8.232 1.867-2.016 4.312-3.024 7.336-3.024.523.037 1.158.13 1.904.28.747.15 1.42.336 2.016.56l3.528 1.344-1.12 3.192-3.92-1.512c-.933-.373-1.736-.56-2.408-.56-.97 0-1.904.224-2.8.672-.858.41-1.624.99-2.296 1.736a8.133 8.133 0 0 0-1.512 2.52 8.354 8.354 0 0 0-.56 3.024Zm35.8 20.44V31.784c0-1.232-.225-2.203-.673-2.912-.448-.747-.989-1.307-1.624-1.68a4.717 4.717 0 0 0-1.96-.784c-.672-.15-1.25-.224-1.736-.224-.485 0-1.082.075-1.792.224a5.152 5.152 0 0 0-1.96.784c-.634.373-1.176.933-1.624 1.68-.448.71-.672 1.68-.672 2.912v12.152c0 1.232.224 2.221.672 2.968.448.71.99 1.27 1.624 1.68a5.99 5.99 0 0 0 1.96.84c.71.112 1.307.168 1.792.168.486 0 1.064-.056 1.736-.168a5.4 5.4 0 0 0 1.96-.84c.635-.41 1.176-.97 1.624-1.68.448-.747.672-1.736.672-2.968Zm2.575.392c0 1.717-.317 3.099-.952 4.144-.634 1.045-1.4 1.867-2.296 2.464a8.17 8.17 0 0 1-2.8 1.12c-.97.187-1.81.28-2.52.28-.709 0-1.549-.093-2.52-.28a8.166 8.166 0 0 1-2.8-1.12c-.896-.597-1.661-1.419-2.296-2.464-.634-1.045-.952-2.427-.952-4.144V31.392c0-1.717.318-3.099.952-4.144.635-1.045 1.4-1.848 2.296-2.408a8.166 8.166 0 0 1 2.8-1.12c.971-.187 1.811-.28 2.52-.28.71 0 1.55.093 2.52.28a8.17 8.17 0 0 1 2.8 1.12c.896.56 1.662 1.363 2.296 2.408.635 1.045.952 2.427.952 4.144v12.936ZM48.944 18.4v-4.312h3.248V18.4h-3.248Zm-11.088 0v-4.312h3.248V18.4h-3.248Z"/>
</svg>