<svg xmlns="http://www.w3.org/2000/svg" fill="none" viewBox="0 0 70 70">
  <path fill="#F3BA2F" d="M35 70c19.33 0 35-15.67 35-35S54.33 0 35 0 0 15.67 0 35s15.67 35 35 35Z"/>
  <path fill="#fff" d="m35 21.3-9.71 9.71-5.65-5.65L35 10l15.365 15.365-5.65 5.65L35 21.3Zm-19.35 8.049L10 35l5.65 5.649 5.65-5.65-5.65-5.65ZM35 48.7l-9.71-9.71-5.658 5.642L35 60l15.365-15.364.003-.003-5.653-5.647L35 48.7Zm19.35-19.348-5.65 5.65 5.65 5.65 5.65-5.65-5.65-5.65Z"/>
  <path fill="#fff" d="M40.733 34.997h-.002l.005.003-.003.003L35 40.736l-5.728-5.729-.008-.008.008-.008L35 29.264l5.733 5.733Z"/>
</svg>