<svg width="45" height="40" viewBox="0 0 45 40" fill="none" xmlns="http://www.w3.org/2000/svg">
<path d="M26.8631 4.31167C27.0008 4.32416 26.3513 2.87264 26.2726 2.7298C25.972 2.18704 25.6016 1.76569 25.1793 1.43361C24.7159 1.06939 24.188 0.814076 23.6208 0.626609C23.5206 0.592687 23.4133 0.721235 23.433 0.847998C23.628 2.15669 23.322 3.48503 23.1914 4.09206C23.1914 4.09206 25.2294 4.16883 26.8648 4.31167H26.8631Z" fill="white"/>
<path d="M26.414 4.41508C26.1527 3.48846 25.7161 2.6654 25.1507 2.03515C24.834 1.68164 24.3813 1.29957 23.934 1.11746C23.9752 1.84769 23.8964 3.47061 23.5994 4.32581C23.5081 4.59005 23.2183 4.72931 22.9535 4.63647C22.6886 4.54542 22.5491 4.25618 22.6421 3.99195C22.9051 3.23851 22.9749 1.45847 22.9105 1.03176L22.9069 1.01391C22.8729 0.796088 22.8032 0.342598 23.1664 0.096213C23.2952 0.00872861 23.4223 0.00337241 23.458 0.00158702C23.5099 -0.00198377 23.5547 0.00158702 23.5958 0.00158702C24.6587 0.0837152 25.5676 0.978198 25.9076 1.35849C26.575 2.103 27.0885 3.06533 27.3909 4.14013C27.4661 4.40973 27.3086 4.68825 27.0402 4.76324C26.9937 4.77573 26.949 4.78288 26.9025 4.78288C26.6806 4.78288 26.4766 4.63647 26.414 4.4133V4.41508ZM23.5046 1.01212C23.5046 1.01212 23.5081 1.01212 23.5099 1.01212H23.5046Z" fill="#0D1B3A"/>
<path d="M29.969 33.4663C31.8013 32.2469 34.6785 31.7934 35.8916 34.5518C36.806 36.63 35.3101 39.1421 33.7642 39.1582C29.7167 39.2046 24.3417 39.5117 22.8118 38.1458C21.5915 37.0568 28.4947 34.4465 29.9672 33.4645L29.969 33.4663Z" fill="#24A4EA"/>
<path d="M30.3853 39.8143C32.6165 39.8143 33.7474 39.7554 34.4148 39.5162C35.8337 39.0055 36.7659 37.3362 36.5405 35.7151C36.3186 34.1296 35.4079 32.9084 34.0408 32.3639C32.6022 31.7925 30.8612 32.0693 29.6051 33.0709L30.3638 34.0189C31.2853 33.2851 32.5521 33.078 33.5899 33.4905C34.5526 33.8743 35.1735 34.7224 35.3345 35.8811C35.4794 36.9184 34.8693 38.0593 34.0015 38.3717C33.2857 38.6288 31.1797 38.611 27.356 38.5806C25.683 38.5663 23.6002 38.5503 21.0898 38.5503V39.7643C23.5967 39.7643 25.6758 39.7822 27.347 39.7947C28.5405 39.8054 29.5425 39.8125 30.3871 39.8125L30.3853 39.8143Z" fill="#0D1B3A"/>
<path d="M32.9086 26.6515C34.9054 27.1228 37.2995 28.6583 36.3404 31.0864C35.7589 32.5558 33.5939 32.5987 32.2698 32.0773C30.6093 31.4221 29.6449 29.7992 29.6806 28.0584C29.7093 26.6676 31.3035 26.273 32.9103 26.6515H32.9086Z" fill="#24A4EA"/>
<path d="M34.653 32.9455C35.5101 32.7312 36.2759 32.1778 36.7268 31.41C37.2654 30.4923 37.2654 29.4443 36.7268 28.5356C35.7642 26.9108 33.4578 25.9717 31.5844 26.4413L31.8814 27.6196C33.2216 27.284 34.9966 28.0017 35.6801 29.1533C36.1006 29.8639 35.859 30.487 35.6783 30.7959C35.299 31.4422 34.5671 31.8475 33.8138 31.8296C32.8512 31.8064 31.9315 31.2654 31.0404 30.7405C30.9062 30.662 30.772 30.5834 30.6396 30.5066L30.0312 31.5582C30.1601 31.6332 30.2907 31.71 30.4213 31.7868C31.3983 32.3617 32.5041 33.0133 33.7834 33.0437C34.0769 33.0508 34.3703 33.0169 34.653 32.9455Z" fill="#0D1B3A"/>
<path d="M11.9679 32.5417C14.6823 30.6027 16.01 27.2962 16.4197 24.1021C16.6237 22.5185 16.697 20.8456 16.511 19.2566C16.4197 18.4638 15.6718 16.707 15.5125 15.5465C15.3139 14.7234 15.2066 13.8111 15.2066 12.8095C15.2066 4.80021 25.0191 1.17407 30.7341 6.45348C33.6292 9.12801 34.5525 13.8254 32.7077 17.3498C32.0475 18.612 31.0669 19.6172 29.9093 20.3564C30.0936 20.5956 30.2689 20.842 30.43 21.0973C33.3895 25.7857 33.9692 34.7538 27.5939 38.4924C26.4738 39.1494 23.3389 39.3065 21.8753 39.3458C21.36 39.4226 20.8214 39.419 20.2846 39.3458L13.9415 39.2423C7.30677 39.2548 5.87891 34.3021 5.87891 34.3021C5.87891 34.3021 8.73464 34.852 11.9697 32.5417H11.9679Z" fill="#24A4EA"/>
<path d="M24.195 33.306C24.2129 33.306 24.229 33.306 24.2469 33.306C25.9056 33.306 27.1348 31.9527 27.2064 30.353C27.2368 29.6888 26.997 29.0675 26.5944 28.5676C26.9791 27.4142 27.2511 25.5538 27.3943 24.3665C27.5213 23.3292 27.4801 22.5686 27.4766 20.644C27.4766 20.0369 29.282 20.2548 30.3144 20.9475C32.356 22.3151 33.3723 25.5681 33.7123 27.8748C34.1042 30.5315 33.5065 33.2864 31.9445 35.4503C30.5077 37.441 28.0044 38.6533 25.6067 39.0139C25.2632 39.0657 24.9161 39.0978 24.5654 39.1175C25.0252 38.3194 25.2453 37.3821 25.2865 36.4679C25.3348 35.3931 24.8696 34.1933 24.1914 33.306H24.195Z" fill="white"/>
<path d="M32.6422 11.5259C32.8318 11.3205 33.0412 11.1474 33.2738 11.0349C33.9573 10.701 34.8573 10.7706 35.4192 11.308C35.7734 11.6455 36.0776 12.2954 36.142 12.8006C36.3013 14.0665 35.0112 15.4698 34.5281 15.7858L35.8039 16.275C35.9148 16.3268 35.9721 16.4571 35.9381 16.5803C35.8379 16.9285 35.6106 17.6212 35.2617 18.1122C33.7569 20.2243 31.3574 21.2723 28.9061 21.4009C27.7216 21.4616 26.4834 21.3688 25.349 20.9849C23.4416 20.3404 22.5165 17.3463 25.0108 16.8678C25.7677 16.7232 26.5424 16.6946 27.3029 16.566C29.4071 16.209 30.486 14.7199 31.59 13.0452C31.8924 12.5864 32.2235 11.9794 32.644 11.5277L32.6422 11.5259Z" fill="white"/>
<path d="M33.8239 12.2976C34.0691 12.1637 34.3017 11.9691 34.4305 12.2029C34.5594 12.4368 34.5039 12.9475 34.2587 13.0814C34.0136 13.2153 33.7112 13.1331 33.5824 12.901C33.4536 12.6671 33.5806 12.4315 33.8239 12.2976Z" fill="#0D143A"/>
<path d="M32.5459 10.0361C32.0897 6.55635 29.0156 4.31925 25.6374 4.00502C23.4097 3.81934 21.1033 4.34424 19.2657 5.63508C17.4281 6.90986 16.1595 8.88807 15.7784 11.0823C15.5583 12.1321 15.4885 13.2177 15.6102 14.2675C15.7551 13.2177 15.9967 12.2107 16.3545 11.2412C17.1186 8.85951 18.89 6.86522 21.2071 5.90646C25.4979 4.12821 30.7799 5.42262 32.5441 10.0361H32.5459Z" fill="white"/>
<path d="M29.6045 22.4124C29.6295 22.4124 29.6528 22.4124 29.6778 22.4089C32.7125 22.0714 36.241 20.3217 37.0444 16.4242C37.1267 16.0243 36.9191 15.6654 36.4289 15.353C36.9406 14.6406 37.5597 13.4765 37.252 12.3125C37.0533 11.5662 36.6418 10.8788 36.0925 10.3753C35.4627 9.79683 34.6897 9.51117 33.9167 9.57009C33.0238 9.63793 32.4799 9.97894 32.233 10.1753C31.9502 10.4039 31.9055 10.8181 32.1328 11.1002C32.3618 11.3823 32.7769 11.4269 33.0596 11.2002C33.1383 11.1359 33.4407 10.9252 34.0151 10.8824C34.9312 10.8127 35.731 11.7268 35.9762 12.6517C36.2177 13.5604 35.2945 14.7424 34.9169 15.1209L34.194 15.8493L35.1567 16.2028C35.341 16.2707 35.5467 16.3671 35.6863 16.4456C34.9115 19.454 32.0272 20.8252 29.5311 21.1037C29.1697 21.1448 28.9084 21.4697 28.9496 21.8304C28.9872 22.1661 29.2734 22.416 29.6045 22.416V22.4124Z" fill="#0D1B3A"/>
<path d="M16.5649 39.9192C17.1787 39.9192 17.7906 39.9139 18.4294 39.905C21.7145 39.855 24.3913 39.8318 25.5347 39.821C25.9307 39.8175 26.152 39.8103 26.1985 39.7996C29.6036 39.0533 32.7295 36.3074 33.7995 33.1222C34.6834 30.4906 35.0538 26.2003 31.7973 20.7102L30.6629 21.3797C32.3215 24.1738 33.9945 28.4052 32.5506 32.7045C31.6273 35.454 28.9308 37.8285 25.9802 38.4999C25.8997 38.4999 25.7441 38.5016 25.524 38.5034C24.3788 38.5141 21.7002 38.5373 18.4097 38.5873C16.1623 38.6213 14.2209 38.5963 11.4797 38.4999C11.1219 38.4874 9.81745 37.9678 8.42716 36.8287C7.58261 36.136 6.92772 35.354 6.64144 34.8737C6.94204 34.9148 7.34642 34.9683 7.82059 34.9594C9.61168 34.9219 10.8982 34.0364 11.9324 33.3258C13.6501 32.1438 15.0136 30.5423 16.0997 28.4302C17.1321 26.4252 17.6331 24.2774 17.592 22.0474C17.5759 21.1672 17.4417 20.4763 17.1751 19.1015C16.8834 17.6036 16.5935 16.6912 16.3609 15.9574C16.0908 15.1076 15.9118 14.5452 15.8689 13.5329C15.7991 11.8564 16.1731 10.6013 16.3377 10.1388C16.6705 9.2033 17.3486 7.84282 18.687 6.66803C19.2274 6.19491 20.7197 5.05582 22.9205 4.69874C24.8422 4.38809 26.3292 4.82194 26.8892 4.98441C27.3473 5.11831 28.3028 5.39683 29.337 6.10921C29.7557 6.39844 30.8257 7.22329 31.6828 8.63911C32.0388 9.22829 32.3251 9.86032 32.5309 10.5191L33.7888 10.1263C33.5508 9.36755 33.2216 8.63733 32.8118 7.95888C31.8581 6.38237 30.6951 5.44504 30.0867 5.02547C28.8771 4.19348 27.7857 3.87389 27.2614 3.72213C26.6226 3.53645 24.9263 3.0419 22.7112 3.40076C20.2634 3.79712 18.5958 4.99869 17.8192 5.68071C16.2697 7.04118 15.4842 8.6159 15.0977 9.69785C14.908 10.2317 14.4732 11.6814 14.5537 13.5882C14.6038 14.7755 14.8257 15.4736 15.1066 16.3556C15.3303 17.0573 15.6076 17.9303 15.8832 19.3515C16.1355 20.653 16.2625 21.3047 16.2768 22.0724C16.3144 24.0828 15.8617 26.0199 14.9295 27.8303C13.9454 29.7461 12.7197 31.1887 11.1863 32.2438C10.2057 32.9187 9.18941 33.6168 7.79554 33.6454C7.40726 33.6543 7.07982 33.6079 6.79174 33.5668C6.30147 33.499 5.68953 33.4133 5.33703 33.9328C4.83424 34.6737 5.58933 35.6914 5.83625 36.0271C6.28179 36.6288 6.93846 37.309 7.59335 37.8464C9.12678 39.1051 10.6871 39.7907 11.4368 39.8175C13.4247 39.8889 14.9975 39.921 16.5703 39.921L16.5649 39.9192Z" fill="#0D1B3A"/>
<path d="M23.0196 32.3643C23.7335 32.5107 24.3991 33.0053 25.1667 32.8446C26.0435 32.6607 26.9095 31.9466 26.7449 30.8093C26.5069 29.1792 24.4689 28.3508 23.3023 28.1169C22.973 28.0508 22.7583 27.7312 22.8245 27.4027C22.8907 27.0742 23.211 26.86 23.5402 26.926C24.1003 27.0385 25.1918 27.3295 26.1991 28.0312C27.1958 28.7257 27.8024 29.6255 27.9491 30.6343C28.1853 32.2483 27.1189 33.6784 25.4172 34.0337C25.2186 34.0747 25.0182 34.0944 24.8196 34.0944C23.9983 34.0944 23.1967 33.7623 22.5078 33.3106C22.7762 33.0089 22.8818 32.7536 23.0196 32.3643Z" fill="#0D1B3A"/>
<path d="M18.8867 25.7958C14.7069 23.5962 13.585 27.5901 13.585 27.5901C9.6933 25.8744 8.3048 29.2202 8.3048 29.2202L7.93799 28.9685C4.98027 23.4784 1.07422 24.0122 1.07422 24.0122C1.07422 24.0122 5.08763 18.7792 5.12163 18.5828C5.15562 18.3864 9.28355 16.0547 9.28355 16.0547L10.7293 17.6455C10.7293 17.6455 12.9373 19.3202 13.0429 19.4184C13.1484 19.5184 15.3403 21.5234 15.6231 21.5483C15.9058 21.5733 18.8921 24.1961 18.8921 24.1961" fill="#EFAAFB"/>
<path d="M0.911946 24.2261C4.81442 13.2548 12.9951 13.2852 12.9951 13.2852C12.419 14.6831 12.283 15.749 12.4458 16.5971C12.4458 16.5989 12.4458 16.6024 12.4458 16.6024C12.4548 16.6471 12.4637 16.6899 12.4744 16.7345C12.4923 16.8113 12.5138 16.8881 12.5371 16.9613C12.5496 16.9988 12.5621 17.0345 12.5746 17.072C12.5854 17.1059 12.5997 17.138 12.6122 17.1702C12.614 17.1773 12.6176 17.1845 12.6212 17.1916C12.6337 17.2255 12.648 17.2577 12.6641 17.2916C12.6784 17.3273 12.6945 17.363 12.7142 17.3969C12.7303 17.4344 12.75 17.4701 12.7697 17.504C12.7697 17.504 12.7697 17.5058 12.7732 17.5076C12.9844 17.9004 13.276 18.2378 13.6214 18.5414C13.6697 18.5842 13.7198 18.6288 13.7717 18.6699C13.9256 18.7967 14.0884 18.9181 14.2584 19.0341C14.3192 19.077 14.3818 19.118 14.4462 19.1591C14.5572 19.2323 14.6735 19.3037 14.7898 19.3751C14.8506 19.4126 14.9115 19.4483 14.9741 19.4841C15.0367 19.5215 15.0993 19.5573 15.162 19.5947C15.4483 19.759 15.7435 19.9215 16.0405 20.0857C16.8332 20.5249 17.6455 20.9874 18.3469 21.5783C18.6261 21.814 18.8891 22.0711 19.1253 22.355C19.7265 23.0745 20.1649 23.9707 20.3098 25.1545L19.0072 26.0954C18.1412 23.7654 16.0101 22.405 13.2975 21.4855C12.5979 23.8065 13.8021 27.7736 13.7788 27.8165C11.0895 24.6974 10.7531 19.6287 10.7531 19.6287C8.58985 22.9067 8.23378 30.1857 8.23378 30.1857C6.33354 23.653 9.76542 17.7558 9.76542 17.7558L9.45766 16.9309C5.59992 17.9308 0.910156 24.2207 0.910156 24.2207L0.911946 24.2261Z" fill="#24A4EA"/>
<path d="M0.0017893 24.9671C0.017893 24.9154 0.996643 24.7118 1.27041 24.7136C1.92887 24.7136 2.5766 24.9029 3.17244 25.1742C4.94564 25.9812 6.33056 27.5113 7.44172 29.0682C7.6618 29.3628 7.8121 29.5752 8.15028 30.3144C8.36679 30.0037 9.41711 28.1773 10.4388 27.7773C11.2476 27.4595 12.2048 27.531 13.2856 27.9845C13.3285 27.9952 13.6005 28.1219 13.6005 28.1219C13.6005 28.1219 14.9675 26.0884 15.6618 25.7956C16.4204 25.476 17.3563 25.5831 18.4477 26.1116L18.5533 26.2455C18.6374 26.5061 18.9237 26.6436 19.1796 26.5508C19.3012 26.5061 19.3979 26.4187 19.4515 26.3026C19.5052 26.1866 19.5106 26.0562 19.4658 25.9366C18.6356 23.7031 16.7264 22.148 13.4574 21.0393C13.3339 20.9982 13.1979 21.0071 13.0816 21.066C12.9653 21.125 12.8776 21.2303 12.8401 21.3535C12.45 22.6461 12.5251 24.0834 12.7166 25.2528C11.4515 22.5604 11.2386 19.6342 11.2368 19.6038C11.2225 19.3985 11.0794 19.2253 10.8772 19.1717C10.675 19.12 10.4639 19.2003 10.3511 19.3717C9.17555 21.1535 8.51709 23.9905 8.15028 26.4026C8.05903 21.7195 10.1615 18.0416 10.1847 18.0023C10.2563 17.8791 10.2688 17.7309 10.2187 17.597L9.91096 16.774C9.82328 16.5401 9.57278 16.4151 9.33122 16.4776C8.00893 16.8222 5.81166 17.9577 2.69469 21.3553C4.57704 17.822 6.92282 16.0009 8.61013 15.085C10.1454 14.253 11.5052 13.9459 12.2782 13.8334C10.9541 17.822 13.3375 19.1414 15.6439 20.418C17.5441 21.4695 19.5088 22.5569 19.8327 25.2171C19.8649 25.4778 20.1046 25.667 20.3694 25.6349C20.4983 25.6206 20.6128 25.5563 20.6915 25.4546C20.7702 25.3546 20.806 25.2296 20.7899 25.1028C20.4052 21.957 18.1239 20.6947 16.1109 19.5806C13.6596 18.2237 11.8881 17.2435 13.4413 13.4692C13.5021 13.321 13.4842 13.1532 13.3947 13.0211C13.3053 12.8889 13.155 12.8086 12.9957 12.8086C12.8615 12.8086 10.768 12.8318 8.18607 14.2226C7.7119 14.4779 7.24847 14.7529 6.80294 15.0528C5.40191 15.9937 4.18339 17.1792 3.18496 18.5379C2.13464 19.9662 1.39029 21.5695 0.715722 23.2014C0.472376 23.7906 0.237978 24.3815 0 24.9707L0.0017893 24.9671ZM13.6417 22.1194C15.5562 22.83 16.8982 23.7102 17.7588 24.8261C16.8463 24.5744 16.0143 24.6047 15.2753 24.9171C14.6508 25.1814 14.1928 25.6081 13.8617 26.0384C13.5916 24.9171 13.3786 23.4478 13.6417 22.1176V22.1194ZM8.96799 27.5667C9.20776 25.6742 9.65688 23.1335 10.4746 21.2071C10.7251 22.6551 11.2655 24.8118 12.3963 26.7115C11.5607 26.5508 10.7823 26.6115 10.0738 26.8918C9.63183 27.0668 9.26681 27.3096 8.96799 27.5685V27.5667ZM2.04696 23.5745C3.42831 21.8998 6.4916 18.4808 9.1684 17.5292L9.23997 17.722C8.74433 18.6468 6.95145 22.3462 7.19837 26.915C5.32497 24.4351 3.312 23.7424 2.04696 23.5763V23.5745Z" fill="#0D1B3A"/>
<path d="M22.006 5.59568C21.8825 5.61532 21.6123 5.46713 21.4942 5.43321C21.0344 5.30109 20.5656 5.17254 20.0932 5.10648C17.6132 4.75119 15.1816 4.04774 13.573 1.98025C13.4835 1.8642 13.3976 1.74636 13.3153 1.62496C13.2312 1.49998 13.0416 1.54104 13.0129 1.68745C12.9217 2.15701 12.8787 2.64263 12.8752 3.11398C12.8555 5.31358 14.6001 7.67031 16.6918 8.36482C16.7866 8.39696 17.4111 8.65227 17.4934 8.55943C17.4934 8.55943 18.1017 7.89884 18.8353 7.22217C20.3079 5.86527 21.9988 5.59568 22.006 5.59389V5.59568Z" fill="white"/>
<path d="M12.9506 0.722971C13.5607 0.60335 13.9078 1.18717 14.0742 1.46748C14.0886 1.49248 14.1029 1.51569 14.1136 1.53176C14.8848 2.69762 15.6649 3.32786 16.7206 3.63852C17.6045 3.89919 18.5368 4.08666 19.4368 4.26698L19.7302 4.3259C20.4137 4.46337 21.2798 4.47409 22.0062 4.7776C21.8631 4.81688 21.0901 5.20788 20.9058 5.2918C20.6553 5.40785 20.4066 5.52211 20.174 5.66495C19.9414 5.6096 19.7105 5.56139 19.4887 5.51497L19.197 5.45605C18.2702 5.27037 17.3111 5.07755 16.3753 4.8026C15.1818 4.45088 14.2478 3.77421 13.3997 2.63156C13.4158 2.91544 13.4498 3.26537 13.5124 3.67959C13.7504 5.27573 14.2872 6.40767 15.2033 7.24502C16.0443 8.01274 16.7922 8.27519 17.3004 8.40017C17.0355 8.67334 16.624 9.41428 16.6097 9.46605C16.0031 9.27144 15.2265 8.91258 14.382 8.14129C13.2494 7.10576 12.5909 5.74529 12.31 3.85813C12.0058 1.80849 12.1973 0.871159 12.9523 0.722971H12.9506Z" fill="#0D1B3A"/>
<path d="M19.76 38.4997C22.1451 38.9389 23.6248 38.3122 23.6463 38.3015C24.4819 37.9319 24.9758 36.9214 24.8183 35.8983C24.6573 34.8557 24.0239 34.0397 23.0773 33.663C22.0717 33.2631 20.9105 33.4309 20.0427 34.1004C19.7761 34.3058 19.3949 34.2576 19.1892 33.9915C18.9834 33.7273 19.0317 33.3452 19.2983 33.1399C20.5043 32.2079 22.1254 31.9758 23.53 32.5346C24.8863 33.0756 25.7953 34.2326 26.0225 35.7127C26.2659 37.2945 25.4911 38.8139 24.1402 39.4102C24.0614 39.4441 23.0612 39.8708 21.4151 39.8708C20.7119 39.8708 19.8906 39.7923 18.9727 39.5745C19.309 39.2817 19.5774 38.9139 19.7617 38.4979L19.76 38.4997Z" fill="#0D1B3A"/>
<path d="M26.9349 15.3765C28.0229 15.3765 28.9049 14.375 28.9049 13.1394C28.9049 11.9039 28.0229 10.9023 26.9349 10.9023C25.8469 10.9023 24.9648 11.9039 24.9648 13.1394C24.9648 14.375 25.8469 15.3765 26.9349 15.3765Z" fill="#0D1B3A"/>
<path d="M27.5948 12.9376C27.8478 12.9376 28.0528 12.7329 28.0528 12.4805C28.0528 12.2281 27.8478 12.0234 27.5948 12.0234C27.3418 12.0234 27.1367 12.2281 27.1367 12.4805C27.1367 12.7329 27.3418 12.9376 27.5948 12.9376Z" fill="white"/>
<path d="M39.1455 18.4373C39.1455 18.4373 39.8057 18.1213 39.7556 17.4071C39.65 15.9021 37.1289 15.5735 37.1289 15.5735C37.1289 15.5735 39.6411 14.9112 39.718 13.4043C39.7538 12.6883 39.0882 12.392 39.0882 12.392C39.0882 12.392 40.3693 11.8599 41.7059 12.1813C44.7317 12.908 44.7782 17.7607 41.7668 18.5748C40.4373 18.9337 39.1455 18.4391 39.1455 18.4391V18.4373Z" fill="#EFAAFB"/>
<path d="M35.9041 15.6765C36.7361 15.7908 37.5985 15.9533 38.3608 16.3175C38.6829 16.471 39.0121 16.6746 39.2107 16.9799C39.4075 17.2834 39.3968 17.6869 39.1499 17.9601C38.8761 18.2636 38.3554 18.3546 37.9868 18.4939L39.03 18.8956C39.0783 18.9153 40.0857 19.2955 41.272 19.1545C41.4617 19.1313 41.6567 19.0956 41.8517 19.0438C43.6267 18.5635 44.6341 16.8388 44.6216 15.3409C44.6073 13.8429 43.5945 12.0004 41.7837 11.7112C40.2217 11.4612 37.9099 12.3771 37.9099 12.3771C37.9278 12.37 37.9546 12.3736 37.9743 12.3718C38.3876 12.3575 38.9477 12.5093 39.1606 12.8913C39.5185 13.5341 39.0747 14.209 38.5308 14.5642C38.0137 14.9035 37.4017 15.0659 36.8113 15.2266C36.2154 15.3891 35.5999 15.5159 34.9844 15.5837C35.2921 15.6016 35.5999 15.6373 35.9059 15.6783L35.9041 15.6765ZM38.3823 15.4837C39.5668 14.9892 40.066 14.2464 40.1089 13.4323C40.1233 13.1466 40.0696 12.8806 39.9461 12.6414C40.0517 12.6217 40.1662 12.6021 40.2897 12.5878C40.6869 12.5414 41.1575 12.536 41.6316 12.6503C43.0756 12.9985 43.5999 14.3214 43.6106 15.348C43.6196 16.3764 43.1203 17.7137 41.6835 18.1029C41.0662 18.2707 40.4507 18.2332 39.9998 18.16C40.1179 17.9172 40.168 17.6494 40.1465 17.3637C40.0893 16.5514 39.5775 15.9444 38.3841 15.4837H38.3823Z" fill="#0D1B3A"/>
</svg>
