<?xml version="1.0" encoding="UTF-8"?>
<svg id="Layer_1" data-name="Layer 1" xmlns="http://www.w3.org/2000/svg" xmlns:xlink="http://www.w3.org/1999/xlink" viewBox="0 0 1080 625">
  <defs>
    <style>
      .cls-1 {
        fill: url(#linear-gradient);
      }

      .cls-2 {
        fill: none;
        stroke: #43ff98;
        stroke-linecap: round;
        stroke-linejoin: round;
        stroke-width: 5px;
      }
    </style>
    <linearGradient id="linear-gradient" x1="615.7" y1="600" x2="615.7" y2="25" gradientUnits="userSpaceOnUse">
      <stop offset="0" stop-color="transparent"/>
      <stop offset="1" stop-color="#06c68d"/>
    </linearGradient>
  </defs>
  <path class="cls-1" d="M1059,600l-885.59-.86-1-91.46c0-2.13,1.82-3.86,4.06-3.86h140.28c2.24,0,4.06-1.73,4.06-3.86v-88.46c0-2.13,1.82-3.86,4.06-3.86h140.28c2.24,0,4.06-1.73,4.06-3.86v-88.46c0-2.13,1.82-3.86,4.06-3.86h140.28c2.24,0,4.06-1.73,4.06-3.86v-88.46c0-2.13,1.82-3.86,4.06-3.86h141.4c2.23,0,4.04-1.73,4.02-3.85l-.85-86.43c0-2.13,1.82-3.86,4.06-3.86h140.28c2.24,0,4.06-1.73,4.06-3.86V28.86c0-2.13,1.82-3.86,4.06-3.86h140.28v575Z"/>
  <path class="cls-2" d="M24,600h144.34c2.24,0,4.06-1.73,4.06-3.86v-88.46c0-2.13,1.82-3.86,4.06-3.86h140.28c2.24,0,4.06-1.73,4.06-3.86v-88.46c0-2.13,1.82-3.86,4.06-3.86h140.28c2.24,0,4.06-1.73,4.06-3.86v-88.46c0-2.13,1.82-3.86,4.06-3.86h140.28c2.24,0,4.06-1.73,4.06-3.86v-88.46c0-2.13,1.82-3.86,4.06-3.86h141.4c2.23,0,4.04-1.73,4.02-3.85l-.85-86.43c0-2.13,1.82-3.86,4.06-3.86h140.28c2.24,0,4.06-1.73,4.06-3.86V28.86c0-2.13,1.82-3.86,4.06-3.86h140.28"/>
</svg>
