<?xml version="1.0" encoding="UTF-8"?>
<svg id="Layer_1" data-name="Layer 1" xmlns="http://www.w3.org/2000/svg" xmlns:xlink="http://www.w3.org/1999/xlink" viewBox="0 0 1080 625">
  <defs>
    <style>
      .cls-1 {
        fill: url(#linear-gradient);
      }

      .cls-2 {
        fill: none;
        stroke: #43ff98;
        stroke-linecap: round;
        stroke-linejoin: round;
        stroke-width: 5px;
      }
    </style>
    <linearGradient id="linear-gradient" x1="640" y1="597" x2="640" y2="38" gradientUnits="userSpaceOnUse">
      <stop offset="0" stop-color="transparent"/>
      <stop offset="1" stop-color="#06c68d"/>
    </linearGradient>
  </defs>
  <path class="cls-1" d="M1053,597H227c3.09,0,5.6-2.51,5.6-5.6v-128.54c0-3.09,2.51-5.6,5.6-5.6h193.39c3.09,0,5.6-2.51,5.6-5.6v-128.54c0-3.09,2.51-5.6,5.6-5.6h193.39c3.09,0,5.6-2.51,5.6-5.6v-128.54c0-3.09,2.51-5.6,5.6-5.6h193.39c3.09,0,5.6-2.51,5.6-5.6V43.6c0-3.09,2.51-5.6,5.6-5.6h201v559Z"/>
  <path class="cls-2" d="M28,597h199c3.09,0,5.6-2.51,5.6-5.6v-128.54c0-3.09,2.51-5.6,5.6-5.6h193.39c3.09,0,5.6-2.51,5.6-5.6v-128.54c0-3.09,2.51-5.6,5.6-5.6h193.39c3.09,0,5.6-2.51,5.6-5.6v-128.54c0-3.09,2.51-5.6,5.6-5.6h193.39c3.09,0,5.6-2.51,5.6-5.6V43.6c0-3.09,2.51-5.6,5.6-5.6h199"/>
</svg>
