<svg xmlns="http://www.w3.org/2000/svg" stroke="currentColor" viewBox="0 0 20 20">
  <path strokeLinecap="round" stroke-linejoin="round" stroke-width="1.5" d="M17.5 9.583v-2.25c0-1.4 0-2.1-.273-2.635a2.5 2.5 0 0 0-1.092-1.093c-.535-.272-1.235-.272-2.635-.272h-7c-1.4 0-2.1 0-2.635.272a2.5 2.5 0 0 0-1.093 1.093C2.5 5.232 2.5 5.933 2.5 7.333v7c0 1.4 0 2.1.272 2.635a2.5 2.5 0 0 0 1.093 1.092c.535.273 1.235.273 2.635.273h3.917m7.083-10h-15m10.833-6.667v3.333M6.667 1.666v3.333M15 17.5v-5M12.5 15h5"/>
</svg>