<svg xmlns="http://www.w3.org/2000/svg" width="16" height="16" viewBox="0 0 16 16" fill="none">
  <g clip-path="url(#clip0_4003_2957)">
    <path d="M6.68835 1.13948C7.44066 0.485918 8.55934 0.485919 9.31165 1.13948L9.38682 1.20479C9.79607 1.56032 10.3321 1.73449 10.8722 1.68741L10.9714 1.67876C11.9642 1.59221 12.8692 2.24975 13.0937 3.22069L13.1161 3.31771C13.2382 3.84589 13.5695 4.30187 14.0341 4.58122L14.1194 4.63253C14.9735 5.14606 15.3192 6.20998 14.9301 7.12744L14.8912 7.21911C14.6795 7.71819 14.6795 8.28181 14.8912 8.78089L14.9301 8.87256C15.3192 9.79002 14.9735 10.8539 14.1194 11.3675L14.0341 11.4188C13.5695 11.6981 13.2382 12.1541 13.1161 12.6823L13.0937 12.7793C12.8692 13.7502 11.9642 14.4078 10.9714 14.3212L10.8722 14.3126C10.3321 14.2655 9.79607 14.4397 9.38682 14.7952L9.31165 14.8605C8.55934 15.5141 7.44066 15.5141 6.68835 14.8605L6.61318 14.7952C6.20393 14.4397 5.6679 14.2655 5.12784 14.3126L5.02864 14.3212C4.03585 14.4078 3.13082 13.7502 2.90634 12.7793L2.88391 12.6823C2.7618 12.1541 2.43051 11.6981 1.96592 11.4188L1.88058 11.3675C1.02653 10.8539 0.68084 9.79002 1.06994 8.87256L1.10882 8.78089C1.32048 8.28181 1.32048 7.71819 1.10882 7.21911L1.06994 7.12743C0.680839 6.20998 1.02653 5.14606 1.88058 4.63253L1.96592 4.58122C2.43051 4.30187 2.7618 3.84589 2.88391 3.31771L2.90634 3.22069C3.13082 2.24975 4.03585 1.59221 5.02864 1.67876L5.12784 1.68741C5.6679 1.73449 6.20393 1.56032 6.61318 1.20479L6.68835 1.13948Z" fill="#00C85D"/>
    <path fill-rule="evenodd" clip-rule="evenodd" d="M10.9891 5.02371C11.2703 5.32193 11.2703 5.80544 10.9891 6.10366L7.14912 10.1764C6.86794 10.4746 6.41206 10.4746 6.13088 10.1764L4.21088 8.14002C3.92971 7.8418 3.92971 7.35829 4.21088 7.06008C4.49206 6.76186 4.94794 6.76186 5.22912 7.06008L6.64 8.55647L9.97088 5.02371C10.2521 4.72549 10.7079 4.72549 10.9891 5.02371Z" fill="#040508"/>
  </g>
  <defs>
    <clipPath id="clip0_4003_2957">
      <rect width="16" height="16" fill="white"/>
    </clipPath>
  </defs>
</svg>