<svg xmlns="http://www.w3.org/2000/svg" fill="currentColor" viewBox="0 0 16 16">
    <path fill-rule="evenodd" d="M12.557.732H7.98c-.293 0-.544 0-.75.015a1.98 1.98 0 0 0-.636.133c-.474.196-.85.572-1.047 1.046a1.98 1.98 0 0 0-.133.636c-.014.207-.014.457-.014.75v.02a.6.6 0 0 0 1.2 0c0-.318 0-.527.011-.688a.83.83 0 0 1 .045-.259.733.733 0 0 1 .397-.397.83.83 0 0 1 .258-.044c.161-.011.37-.012.69-.012h4.532c.384 0 .635 0 .827.017.186.015.262.041.306.063.138.07.25.183.32.32.023.045.05.122.064.307.016.192.017.443.017.827v4.533c0 .319 0 .528-.012.689a.831.831 0 0 1-.044.258.733.733 0 0 1-.397.397.83.83 0 0 1-.259.045c-.16.01-.37.011-.688.011a.6.6 0 0 0 0 1.2h.02c.293 0 .544 0 .75-.014a1.98 1.98 0 0 0 .636-.133c.474-.196.85-.573 1.047-1.046a1.98 1.98 0 0 0 .133-.637c.014-.206.014-.456.014-.75V3.442c0-.353 0-.654-.02-.9a1.972 1.972 0 0 0-.191-.754 1.933 1.933 0 0 0-.845-.845 1.97 1.97 0 0 0-.753-.19c-.247-.02-.548-.02-.901-.02ZM7.89 5.4H3.443c-.353 0-.654 0-.9.02a1.97 1.97 0 0 0-.754.19c-.364.186-.66.482-.845.846a1.97 1.97 0 0 0-.19.753c-.02.247-.02.548-.02.9v4.448c0 .353 0 .654.02.901.02.26.067.512.19.753.185.364.481.66.845.845.241.123.494.17.753.19.247.02.548.02.901.02H7.89c.354 0 .654 0 .901-.02a1.97 1.97 0 0 0 .753-.19c.364-.185.66-.481.845-.845a1.97 1.97 0 0 0 .19-.753c.021-.247.021-.548.021-.901V8.109c0-.353 0-.654-.02-.901a1.97 1.97 0 0 0-.19-.753 1.933 1.933 0 0 0-.846-.845 1.97 1.97 0 0 0-.753-.19c-.247-.02-.547-.02-.9-.02Zm.804 1.216c.185.015.262.042.306.064.138.07.25.183.32.32.023.044.049.121.064.307.016.192.016.443.016.826v4.4c0 .384 0 .635-.016.827-.015.185-.041.262-.064.306a.733.733 0 0 1-.32.32c-.044.023-.121.05-.306.065-.193.015-.444.016-.827.016h-4.4c-.384 0-.635 0-.827-.016-.185-.016-.262-.042-.306-.064a.733.733 0 0 1-.32-.32c-.023-.045-.05-.122-.064-.307a11.386 11.386 0 0 1-.017-.827v-4.4c0-.383 0-.634.017-.826.015-.186.04-.263.063-.306a.733.733 0 0 1 .32-.321c.045-.022.122-.049.307-.064.192-.015.443-.016.827-.016h4.4c.383 0 .634 0 .827.016Z" clip-rule="evenodd"/>
</svg>