<svg width="20" height="20" viewBox="0 0 20 20" fill="currentColor" xmlns="http://www.w3.org/2000/svg">
<path fill-rule="evenodd" clip-rule="evenodd" d="M3.52428 3.5158C3.81945 3.2252 4.29431 3.22891 4.5849 3.52408L9.96568 8.97385L15.4196 3.51992C15.7125 3.22703 16.1874 3.22703 16.4803 3.51992C16.7732 3.81281 16.7732 4.28769 16.4803 4.58058L11.0263 10.0345L16.4761 15.4153C16.7713 15.7059 16.775 16.1807 16.4844 16.4759C16.1938 16.7711 15.7189 16.7748 15.4238 16.4842L9.96565 11.0952L4.58078 16.4801C4.28788 16.773 3.81301 16.773 3.52012 16.4801C3.22722 16.1872 3.22722 15.7123 3.52012 15.4194L8.90499 10.0345L3.51599 4.57642C3.22539 4.28125 3.2291 3.80639 3.52428 3.5158Z" />

</svg>
