<svg width="40" height="40" viewBox="0 0 40 40" fill="none" xmlns="http://www.w3.org/2000/svg">
<g clip-path="url(#clip0_3609_34673)">
<circle cx="20" cy="20" r="20" fill="url(#paint0_linear_3609_34673)"/>
<path fill-rule="evenodd" clip-rule="evenodd" d="M16.75 12.5C16.75 12.0858 17.0858 11.75 17.5 11.75H22.5C22.9142 11.75 23.25 12.0858 23.25 12.5C23.25 12.9142 22.9142 13.25 22.5 13.25H17.5C17.0858 13.25 16.75 12.9142 16.75 12.5ZM14.1608 14.25H12.5C12.0858 14.25 11.75 14.5858 11.75 15C11.75 15.4142 12.0858 15.75 12.5 15.75H13.465L14.0047 23.8461C14.0469 24.4781 14.0814 24.9962 14.1432 25.417C14.2073 25.8534 14.308 26.2454 14.515 26.6088C14.8401 27.1794 15.3305 27.6382 15.9215 27.9247C16.2978 28.107 16.6957 28.1815 17.1354 28.2164C17.5593 28.25 18.0786 28.25 18.712 28.25H21.288C21.9214 28.25 22.4407 28.25 22.8646 28.2164C23.3043 28.1815 23.7022 28.107 24.0785 27.9247C24.6695 27.6382 25.1599 27.1794 25.485 26.6088C25.692 26.2454 25.7927 25.8534 25.8568 25.417C25.9186 24.9962 25.9531 24.4781 25.9953 23.8462L26.535 15.75H27.5C27.9142 15.75 28.25 15.4142 28.25 15C28.25 14.5858 27.9142 14.25 27.5 14.25H25.8392C25.8348 14.25 25.8304 14.25 25.826 14.25H14.174C14.1696 14.25 14.1652 14.25 14.1608 14.25ZM25.0317 15.75H14.9683L15.4994 23.7162C15.544 24.3857 15.5752 24.8442 15.6273 25.1991C15.678 25.5449 15.7412 25.731 15.8183 25.8663C15.9934 26.1735 16.2574 26.4206 16.5757 26.5748C16.7158 26.6427 16.9057 26.6934 17.2541 26.7211C17.6117 26.7495 18.0712 26.75 18.7422 26.75H21.2578C21.9288 26.75 22.3883 26.7495 22.7459 26.7211C23.0943 26.6934 23.2842 26.6427 23.4243 26.5748C23.7426 26.4206 24.0066 26.1735 24.1817 25.8663C24.2588 25.731 24.322 25.5449 24.3727 25.1991C24.4248 24.8442 24.456 24.3857 24.5006 23.7162L25.0317 15.75ZM18.3333 18C18.7475 18 19.0833 18.3358 19.0833 18.75V22.9167C19.0833 23.3309 18.7475 23.6667 18.3333 23.6667C17.9191 23.6667 17.5833 23.3309 17.5833 22.9167V18.75C17.5833 18.3358 17.9191 18 18.3333 18ZM21.6667 18C22.0809 18 22.4167 18.3358 22.4167 18.75V22.9167C22.4167 23.3309 22.0809 23.6667 21.6667 23.6667C21.2525 23.6667 20.9167 23.3309 20.9167 22.9167V18.75C20.9167 18.3358 21.2525 18 21.6667 18Z" fill="white"/>
</g>
<defs>
<linearGradient id="paint0_linear_3609_34673" x1="19.9945" y1="40" x2="19.9945" y2="-7.71018" gradientUnits="userSpaceOnUse">
<stop stop-color="#FF4063"/>
<stop offset="1" stop-color="#FF4040"/>
</linearGradient>
<clipPath id="clip0_3609_34673">
<rect width="40" height="40" fill="white"/>
</clipPath>
</defs>
</svg>
