<svg xmlns="http://www.w3.org/2000/svg" fill="currentColor" viewBox="0 0 20 20">
    <path
        d="M16.074 4.745a15.74 15.74 0 0 0-3.61-.995 8.85 8.85 0 0 0-.463.842 15.103 15.103 0 0 0-4.001 0 8.581 8.581 0 0 0-.468-.842 15.66 15.66 0 0 0-3.613.997c-2.285 3.027-2.904 5.978-2.595 8.888a15.288 15.288 0 0 0 4.428 1.989c.357-.43.675-.888.949-1.37a9.932 9.932 0 0 1-1.494-.636 8.17 8.17 0 0 0 .366-.254c2.88 1.18 6.008 1.18 8.854 0 .12.087.242.172.366.253a10 10 0 0 1-1.496.639c.273.48.59.939.948 1.369a15.258 15.258 0 0 0 4.43-1.99c.364-3.373-.62-6.298-2.6-8.89Zm-8.981 7.1a1.568 1.568 0 1 1 0-3.139c.88 0 1.588.708 1.573 1.57a1.567 1.567 0 0 1-1.573 1.57Zm5.814 0a1.568 1.568 0 1 1 0-3.139c.88 0 1.588.708 1.573 1.57 0 .862-.694 1.57-1.573 1.57Z" />
</svg>