<svg width="16" height="16" viewBox="0 0 16 16" fill="none" xmlns="http://www.w3.org/2000/svg">
  <path d="M2.39961 4.79995C2.84144 4.79995 3.19961 4.44178 3.19961 3.99995C3.19961 3.55812 2.84144 3.19995 2.39961 3.19995C1.95778 3.19995 1.59961 3.55812 1.59961 3.99995C1.59961 4.44178 1.95778 4.79995 2.39961 4.79995Z" fill="white"/>
  <path d="M5.99961 3.39995C5.66824 3.39995 5.39961 3.66858 5.39961 3.99995C5.39961 4.33132 5.66824 4.59995 5.99961 4.59995L13.9996 4.59995C14.331 4.59995 14.5996 4.33132 14.5996 3.99995C14.5996 3.66858 14.331 3.39995 13.9996 3.39995L5.99961 3.39995Z" fill="white"/>
  <path d="M5.99961 7.39995C5.66824 7.39995 5.39961 7.66858 5.39961 7.99995C5.39961 8.33132 5.66824 8.59995 5.99961 8.59995H13.9996C14.331 8.59995 14.5996 8.33132 14.5996 7.99995C14.5996 7.66858 14.331 7.39995 13.9996 7.39995H5.99961Z" fill="white"/>
  <path d="M5.99961 11.4C5.66824 11.4 5.39961 11.6686 5.39961 12C5.39961 12.3313 5.66824 12.6 5.99961 12.6L13.9996 12.6C14.331 12.6 14.5996 12.3313 14.5996 12C14.5996 11.6686 14.331 11.4 13.9996 11.4L5.99961 11.4Z" fill="white"/>
  <path d="M3.19961 7.99995C3.19961 8.44178 2.84144 8.79995 2.39961 8.79995C1.95778 8.79995 1.59961 8.44178 1.59961 7.99995C1.59961 7.55812 1.95778 7.19995 2.39961 7.19995C2.84144 7.19995 3.19961 7.55812 3.19961 7.99995Z" fill="white"/>
  <path d="M2.39961 12.8C2.84144 12.8 3.19961 12.4418 3.19961 12C3.19961 11.5581 2.84144 11.2 2.39961 11.2C1.95778 11.2 1.59961 11.5581 1.59961 12C1.59961 12.4418 1.95778 12.8 2.39961 12.8Z" fill="white"/>
</svg>
