<svg width="16" height="16" viewBox="0 0 16 16" fill="none" xmlns="http://www.w3.org/2000/svg">
  <path fill-rule="evenodd" clip-rule="evenodd" d="M5.17526 1.3999H10.8255C11.3642 1.3999 11.8048 1.39989 12.1628 1.42914C12.5335 1.45942 12.8682 1.52401 13.1808 1.68329C13.67 1.93256 14.0677 2.33031 14.317 2.81953C14.4763 3.13212 14.5409 3.46684 14.5712 3.83745C14.6004 4.1955 14.6004 4.63608 14.6004 5.17479V10.825C14.6004 11.3637 14.6004 11.8043 14.5712 12.1624C14.5409 12.533 14.4763 12.8677 14.317 13.1803C14.0677 13.6695 13.67 14.0672 13.1808 14.3165C12.8682 14.4758 12.5335 14.5404 12.1628 14.5707C11.8048 14.5999 11.3642 14.5999 10.8255 14.5999H5.17528C4.63657 14.5999 4.19599 14.5999 3.83794 14.5707C3.46733 14.5404 3.13261 14.4758 2.82002 14.3165C2.33079 14.0672 1.93304 13.6695 1.68377 13.1803C1.5245 12.8677 1.45991 12.533 1.42963 12.1624C1.40038 11.8043 1.40038 11.3637 1.40039 10.825V5.17477C1.40038 4.63607 1.40038 4.1955 1.42963 3.83745C1.45991 3.46684 1.5245 3.13212 1.68377 2.81953C1.93304 2.33031 2.33079 1.93256 2.82002 1.68329C3.13261 1.52401 3.46733 1.45942 3.83794 1.42914C4.19599 1.39989 4.63655 1.3999 5.17526 1.3999ZM2.60039 8.5999V10.7999C2.60039 11.3699 2.60086 11.7612 2.62565 12.0646C2.64986 12.361 2.69427 12.5203 2.75298 12.6355C2.8872 12.8989 3.10138 13.1131 3.3648 13.2473C3.48004 13.306 3.63925 13.3504 3.93565 13.3746C4.23906 13.3994 4.63044 13.3999 5.20039 13.3999H7.40039V8.5999H2.60039ZM7.40039 7.3999H2.60039V5.1999C2.60039 4.62995 2.60086 4.23857 2.62565 3.93517C2.64986 3.63877 2.69427 3.47955 2.75298 3.36432C2.8872 3.10089 3.10138 2.88672 3.3648 2.75249C3.48004 2.69378 3.63925 2.64938 3.93565 2.62516C4.23906 2.60037 4.63044 2.5999 5.20039 2.5999H7.40039V7.3999ZM8.60039 8.5999V13.3999H10.8004C11.3703 13.3999 11.7617 13.3994 12.0651 13.3746C12.3615 13.3504 12.5207 13.306 12.636 13.2473C12.8994 13.1131 13.1136 12.8989 13.2478 12.6355C13.3065 12.5203 13.3509 12.361 13.3751 12.0646C13.3999 11.7612 13.4004 11.3699 13.4004 10.7999V8.5999H8.60039ZM13.4004 7.3999H8.60039V2.5999H10.8004C11.3703 2.5999 11.7617 2.60037 12.0651 2.62516C12.3615 2.64938 12.5207 2.69378 12.636 2.75249C12.8994 2.88672 13.1136 3.10089 13.2478 3.36432C13.3065 3.47955 13.3509 3.63877 13.3751 3.93517C13.3999 4.23857 13.4004 4.62995 13.4004 5.1999V7.3999Z" fill="#80838F"/>
</svg>
