<svg xmlns="http://www.w3.org/2000/svg" fill="currentColor" viewBox="0 0 25 16">
    <path
        d="M18.552 13.6c-2.345 0-4.216-1.24-6.302-4.21-1.971 2.884-3.928 4.181-6.317 4.181-3.251 0-5.683-2.393-5.683-5.593C.25 4.793 2.725 2.4 5.991 2.4c2.302 0 4.043 1.167 6.259 4.194 2.086-2.94 3.942-4.165 6.273-4.165 3.267 0 5.727 2.393 5.727 5.593S21.804 13.6 18.552 13.6Zm3.828-5.593c0-2.234-1.612-3.834-3.871-3.834-1.842 0-3.28 1.067-5.18 3.849 1.986 2.767 3.41 3.805 5.238 3.805 2.215 0 3.813-1.586 3.813-3.82ZM6.005 4.173c-2.259 0-3.885 1.614-3.885 3.849 0 2.22 1.583 3.82 3.813 3.82 1.9 0 3.44-1.14 5.238-3.85-2.086-2.839-3.396-3.82-5.166-3.82Z" />
</svg>