<svg width="20" height="20" viewBox="0 0 20 20" fill="none" xmlns="http://www.w3.org/2000/svg">
  <g clip-path="url(#clip0_81_12660)">
    <path fill-rule="evenodd" clip-rule="evenodd" d="M1.25 2C1.25 1.58579 1.58579 1.25 2 1.25H4.66667C6.27629 1.25 7.82232 1.87932 8.96404 3.0032C10.1062 4.12748 10.75 5.65486 10.75 7.25C10.75 7.66421 10.4142 8 10 8C9.58579 8 9.25 7.66421 9.25 7.25C9.25 6.06037 8.77003 4.91703 7.91176 4.07218C7.0531 3.22693 5.88602 2.75 4.66667 2.75H2.75V3.75C2.75 4.93963 3.22997 6.08296 4.08824 6.92782C4.9469 7.77307 6.11398 8.25 7.33333 8.25H10C10.4142 8.25 10.75 8.58579 10.75 9C10.75 9.41421 10.4142 9.75 10 9.75H7.33333C5.72371 9.75 4.17768 9.12068 3.03596 7.9968C1.89384 6.87252 1.25 5.34514 1.25 3.75V2Z" fill="#00C85D"/>
    <path fill-rule="evenodd" clip-rule="evenodd" d="M15.3333 5.75C14.1091 5.75 12.9403 6.2192 12.0827 7.04619C11.226 7.87229 10.75 8.98678 10.75 10.1429C10.75 10.1792 10.7474 10.215 10.7424 10.25H12.6667C13.8909 10.25 15.0597 9.7808 15.9173 8.95381C16.774 8.12771 17.25 7.01322 17.25 5.85714V5.75H15.3333ZM9.38443 10.5714C9.29969 10.6929 9.25 10.8407 9.25 11C9.25 11.4142 9.58579 11.75 10 11.75H12.6667C14.2714 11.75 15.8157 11.1355 16.9585 10.0336C18.1022 8.93073 18.75 7.42901 18.75 5.85714V5C18.75 4.58579 18.4142 4.25 18 4.25H15.3333C13.7286 4.25 12.1843 4.86447 11.0415 5.96642C9.8978 7.06927 9.25 8.57099 9.25 10.1429C9.25 10.3022 9.29969 10.4499 9.38443 10.5714Z" fill="#00C85D"/>
    <path fill-rule="evenodd" clip-rule="evenodd" d="M10 6.75C10.4142 6.75 10.75 7.08579 10.75 7.5V13.5C10.75 13.9142 10.4142 14.25 10 14.25C9.58579 14.25 9.25 13.9142 9.25 13.5V7.5C9.25 7.08579 9.58579 6.75 10 6.75Z" fill="#00C85D"/>
    <path fill-rule="evenodd" clip-rule="evenodd" d="M5.25 17.3333C5.25 15.0782 7.07817 13.25 9.33333 13.25H10.6667C12.9218 13.25 14.75 15.0782 14.75 17.3333C14.75 18.1157 14.1157 18.75 13.3333 18.75H6.66667C5.88426 18.75 5.25 18.1157 5.25 17.3333ZM6.75132 17.25H13.2487C13.2047 15.8618 12.0655 14.75 10.6667 14.75H9.33333C7.93448 14.75 6.79531 15.8618 6.75132 17.25Z" fill="#00C85D"/>
  </g>
  <defs>
    <clipPath id="clip0_81_12660">
      <rect width="20" height="20" fill="white"/>
    </clipPath>
  </defs>
</svg>