<svg xmlns="http://www.w3.org/2000/svg" fill="currentColor" viewBox="0 0 12 12">
    <path  fill-rule="evenodd" d="M6.035 1.792a2.95 2.95 0 1 1 4.172 4.172L9.5 6.67a.45.45 0 0 1-.636-.637l.707-.707a2.05 2.05 0 1 0-2.9-2.899l-.706.707a.45.45 0 1 1-.637-.636l.707-.707ZM8.068 3.93a.45.45 0 0 1 0 .636l-3.5 3.5a.45.45 0 1 1-.636-.636l3.5-3.5a.45.45 0 0 1 .636 0ZM3.136 5.327a.45.45 0 0 1 0 .637l-.707.707a2.05 2.05 0 0 0 2.9 2.899l.706-.707a.45.45 0 1 1 .637.636l-.707.707a2.95 2.95 0 1 1-4.172-4.172l.707-.707a.45.45 0 0 1 .636 0Z" clip-rule="evenodd"/>
</svg>