<svg xmlns="http://www.w3.org/2000/svg" fill="currentColor" viewBox="0 0 20 20">
  <path fill-rule="evenodd" d="M5.083 6.667a4.917 4.917 0 0 1 9.834 0v1.026c.254.05.494.127.725.245a3.25 3.25 0 0 1 1.42 1.42c.2.39.28.809.318 1.272.037.448.037.998.037 1.672v1.23c0 .673 0 1.223-.037 1.671-.038.463-.118.882-.317 1.273a3.25 3.25 0 0 1-1.42 1.42c-.391.199-.81.28-1.273.317-.448.037-.998.037-1.672.037H7.302c-.673 0-1.224 0-1.672-.037-.463-.037-.881-.118-1.272-.317a3.25 3.25 0 0 1-1.42-1.42c-.2-.391-.28-.81-.318-1.273-.037-.447-.037-.998-.037-1.672v-1.23c0-.672 0-1.223.037-1.67.038-.464.119-.882.318-1.273a3.25 3.25 0 0 1 1.42-1.42c.231-.118.472-.194.726-.245V6.667Zm1.5.918c.223-.002.462-.002.72-.002h5.395c.257 0 .496 0 .719.002v-.918a3.417 3.417 0 1 0-6.833 0v.918Zm-.83 1.53c-.37.03-.57.086-.714.16a1.75 1.75 0 0 0-.765.764c-.073.144-.129.343-.159.713-.03.38-.032.869-.032 1.581V13.5c0 .712.001 1.202.032 1.58.03.371.086.57.16.714.167.33.435.598.764.765.144.074.343.13.714.16.379.03.868.031 1.58.031h5.334c.712 0 1.201 0 1.58-.032.371-.03.57-.085.714-.159a1.75 1.75 0 0 0 .765-.765c.073-.144.129-.343.16-.713.03-.38.03-.869.03-1.581v-1.167c0-.712 0-1.201-.03-1.58-.031-.371-.086-.57-.16-.714a1.75 1.75 0 0 0-.765-.765c-.144-.073-.343-.129-.713-.16-.38-.03-.869-.03-1.581-.03H7.334c-.713 0-1.202 0-1.581.03ZM10 11.333a.75.75 0 0 1 .75.75v1.667a.75.75 0 0 1-1.5 0v-1.667a.75.75 0 0 1 .75-.75Z" clip-rule="evenodd"/>
</svg>