<svg width="40" height="40" viewBox="0 0 40 40" fill="none" xmlns="http://www.w3.org/2000/svg">
<g clip-path="url(#clip0_4802_2119)">
<circle cx="20" cy="20" r="20" fill="url(#paint0_linear_4802_2119)"/>
<path fill-rule="evenodd" clip-rule="evenodd" d="M12.4358 14.1667C12.4515 14.186 12.4767 14.2128 12.5161 14.2467C12.6546 14.3657 12.8988 14.5069 13.2657 14.6403C13.9935 14.905 15.0486 15.0833 16.2503 15.0833C17.452 15.0833 18.5072 14.905 19.2349 14.6403C19.6019 14.5069 19.8461 14.3657 19.9845 14.2467C20.024 14.2128 20.0491 14.186 20.0648 14.1667C20.0491 14.1473 20.024 14.1206 19.9845 14.0866C19.8461 13.9676 19.6019 13.8264 19.2349 13.693C18.5072 13.4284 17.452 13.25 16.2503 13.25C15.0486 13.25 13.9935 13.4284 13.2657 13.693C12.8988 13.8264 12.6546 13.9676 12.5161 14.0866C12.4767 14.1206 12.4515 14.1473 12.4358 14.1667ZM20.2228 15.852C20.0708 15.9246 19.9114 15.9904 19.7475 16.05C18.8165 16.3886 17.5799 16.5833 16.2503 16.5833C14.9207 16.5833 13.6842 16.3886 12.7531 16.05C12.6386 16.0084 12.5262 15.9637 12.417 15.9157V17.4739C12.4261 17.4889 12.448 17.5183 12.4958 17.562C12.6126 17.6688 12.8237 17.8006 13.1503 17.9299C13.7985 18.1864 14.75 18.374 15.8582 18.4103C15.9873 18.4145 16.118 18.4167 16.2503 18.4167C16.6645 18.4167 17.0003 18.7525 17.0003 19.1667C17.0003 19.5809 16.6645 19.9167 16.2503 19.9167C16.1017 19.9167 15.9545 19.9142 15.8091 19.9095C14.5812 19.8692 13.4495 19.6615 12.5983 19.3246C12.5372 19.3004 12.4767 19.2752 12.417 19.249V20.8072C12.4273 20.8242 12.4539 20.8599 12.5161 20.9134C12.6546 21.0324 12.8988 21.1736 13.2657 21.307C13.9935 21.5716 15.0486 21.75 16.2503 21.75C16.6645 21.75 17.0003 22.0858 17.0003 22.5C17.0003 22.9142 16.6645 23.25 16.2503 23.25C14.9207 23.25 13.6842 23.0553 12.7531 22.7167C12.6386 22.675 12.5262 22.6303 12.417 22.5824V24.1405C12.4273 24.1575 12.4539 24.1932 12.5161 24.2467C12.6546 24.3657 12.8988 24.5069 13.2657 24.6403C13.9935 24.905 15.0486 25.0833 16.2503 25.0833C16.6645 25.0833 17.0003 25.4191 17.0003 25.8333C17.0003 26.2475 16.6645 26.5833 16.2503 26.5833C14.9207 26.5833 13.6842 26.3886 12.7531 26.05C12.2907 25.8819 11.8637 25.6639 11.5382 25.3841C11.2152 25.1064 10.917 24.6976 10.917 24.1667V14.1667C10.917 13.6357 11.2152 13.2269 11.5382 12.9492C11.8637 12.6694 12.2907 12.4515 12.7531 12.2833C13.6842 11.9447 14.9207 11.75 16.2503 11.75C17.5799 11.75 18.8165 11.9447 19.7475 12.2833C20.21 12.4515 20.637 12.6694 20.9624 12.9492C21.2854 13.2269 21.5837 13.6357 21.5837 14.1667V15.4167C21.5837 15.8309 21.2479 16.1667 20.8337 16.1667C20.5817 16.1667 20.3588 16.0425 20.2228 15.852ZM19.9358 19.5833C19.9515 19.6027 19.9767 19.6294 20.0161 19.6634C20.1546 19.7824 20.3988 19.9236 20.7657 20.057C21.4935 20.3216 22.5486 20.5 23.7503 20.5C24.952 20.5 26.0071 20.3216 26.7349 20.057C27.1019 19.9236 27.3461 19.7824 27.4845 19.6634C27.524 19.6294 27.5491 19.6027 27.5648 19.5833C27.5491 19.564 27.524 19.5372 27.4845 19.5033C27.3461 19.3843 27.1019 19.2431 26.7349 19.1097C26.0071 18.845 24.952 18.6667 23.7503 18.6667C22.5486 18.6667 21.4935 18.845 20.7657 19.1097C20.3988 19.2431 20.1546 19.3843 20.0161 19.5033C19.9767 19.5372 19.9515 19.564 19.9358 19.5833ZM27.5837 21.3324C27.4745 21.3803 27.3621 21.425 27.2475 21.4667C26.3165 21.8053 25.0799 22 23.7503 22C22.4207 22 21.1842 21.8053 20.2531 21.4667C20.1386 21.425 20.0262 21.3803 19.917 21.3324V22.6822C19.9273 22.6992 19.9539 22.7349 20.0161 22.7884C20.1546 22.9074 20.3988 23.0486 20.7657 23.182C21.4935 23.4466 22.5486 23.625 23.7503 23.625C24.952 23.625 26.0071 23.4466 26.7349 23.182C27.1019 23.0486 27.3461 22.9074 27.4845 22.7884C27.5468 22.7349 27.5734 22.6992 27.5837 22.6822V21.3324ZM27.5837 24.4574C27.4745 24.5053 27.3621 24.55 27.2475 24.5917C26.3165 24.9303 25.0799 25.125 23.7503 25.125C22.4207 25.125 21.1842 24.9303 20.2531 24.5917C20.1386 24.55 20.0262 24.5053 19.917 24.4574V25.8072C19.9273 25.8242 19.9539 25.8599 20.0161 25.9134C20.1546 26.0324 20.3988 26.1736 20.7657 26.307C21.4935 26.5716 22.5486 26.75 23.7503 26.75C24.952 26.75 26.0071 26.5716 26.7349 26.307C27.1019 26.1736 27.3461 26.0324 27.4845 25.9134C27.5468 25.8599 27.5734 25.8242 27.5837 25.8072V24.4574ZM29.0837 25.8333C29.0837 26.3643 28.7854 26.7731 28.4624 27.0508C28.137 27.3306 27.71 27.5485 27.2475 27.7167C26.3165 28.0553 25.0799 28.25 23.7503 28.25C22.4207 28.25 21.1842 28.0553 20.2531 27.7167C19.7907 27.5485 19.3637 27.3306 19.0382 27.0508C18.7152 26.7731 18.417 26.3643 18.417 25.8333V19.5833C18.417 19.0524 18.7152 18.6436 19.0382 18.3659C19.3637 18.0861 19.7907 17.8681 20.2531 17.7C21.1842 17.3614 22.4207 17.1667 23.7503 17.1667C25.0799 17.1667 26.3165 17.3614 27.2475 17.7C27.71 17.8681 28.137 18.0861 28.4624 18.3659C28.7854 18.6436 29.0837 19.0524 29.0837 19.5833V25.8333Z" fill="white"/>
</g>
<defs>
<linearGradient id="paint0_linear_4802_2119" x1="19.9945" y1="40" x2="19.9945" y2="-7.71018" gradientUnits="userSpaceOnUse">
<stop stop-color="#C64700"/>
<stop offset="1" stop-color="#F8A400"/>
</linearGradient>
<clipPath id="clip0_4802_2119">
<rect width="40" height="40" fill="white"/>
</clipPath>
</defs>
</svg>
