<svg width="40" height="40" viewBox="0 0 40 40" fill="none" xmlns="http://www.w3.org/2000/svg">
<g clip-path="url(#clip0_4802_2366)">
<circle cx="20" cy="20" r="20" fill="url(#paint0_linear_4802_2366)"/>
<g clip-path="url(#clip1_4802_2366)">
<path fill-rule="evenodd" clip-rule="evenodd" d="M20.0003 10.9167C20.4145 10.9167 20.7503 11.2525 20.7503 11.6667V21.5228L22.8033 19.4698C23.0962 19.1769 23.5711 19.1769 23.864 19.4698C24.1569 19.7626 24.1569 20.2375 23.864 20.5304L20.5307 23.8637C20.2378 24.1566 19.7629 24.1566 19.47 23.8637L16.1367 20.5304C15.8438 20.2375 15.8438 19.7626 16.1367 19.4698C16.4296 19.1769 16.9044 19.1769 17.1973 19.4698L19.2503 21.5228V11.6667C19.2503 11.2525 19.5861 10.9167 20.0003 10.9167ZM16.4829 12.4061C16.6903 12.7646 16.5677 13.2234 16.2092 13.4308C13.9406 14.7431 12.417 17.1941 12.417 20.0001C12.417 24.1882 15.8122 27.5834 20.0003 27.5834C24.1885 27.5834 27.5837 24.1882 27.5837 20.0001C27.5837 17.1941 26.0601 14.7431 23.7914 13.4308C23.4329 13.2234 23.3104 12.7646 23.5178 12.4061C23.7252 12.0475 24.184 11.925 24.5425 12.1324C27.2556 13.7018 29.0837 16.637 29.0837 20.0001C29.0837 25.0167 25.0169 29.0834 20.0003 29.0834C14.9837 29.0834 10.917 25.0167 10.917 20.0001C10.917 16.637 12.7451 13.7018 15.4581 12.1324C15.8167 11.925 16.2755 12.0475 16.4829 12.4061Z" fill="white"/>
</g>
</g>
<defs>
<linearGradient id="paint0_linear_4802_2366" x1="19.9945" y1="40" x2="19.9945" y2="-7.71018" gradientUnits="userSpaceOnUse">
<stop stop-color="#00A3A3"/>
<stop offset="1" stop-color="#00E6A4"/>
</linearGradient>
<clipPath id="clip0_4802_2366">
<rect width="40" height="40" fill="white"/>
</clipPath>
<clipPath id="clip1_4802_2366">
<rect width="20" height="20" fill="white" transform="translate(10 10)"/>
</clipPath>
</defs>
</svg>
