<svg width="40" height="40" viewBox="0 0 40 40" fill="none" xmlns="http://www.w3.org/2000/svg">
<g clip-path="url(#clip0_4802_1829)">
<circle cx="20" cy="20" r="20" fill="url(#paint0_linear_4802_1829)"/>
<g clip-path="url(#clip1_4802_1829)">
<path fill-rule="evenodd" clip-rule="evenodd" d="M11.1367 11.1364C11.4296 10.8435 11.9044 10.8435 12.1973 11.1364L13.864 12.8031C14.1569 13.096 14.1569 13.5709 13.864 13.8637C13.5711 14.1566 13.0962 14.1566 12.8033 13.8637L11.1367 12.1971C10.8438 11.9042 10.8438 11.4293 11.1367 11.1364ZM22.5837 11.6667C22.5837 11.2525 22.9194 10.9167 23.3337 10.9167C23.7479 10.9167 24.0837 11.2525 24.0837 11.6667V15.0001C24.0837 15.4143 23.7479 15.7501 23.3337 15.7501C22.9194 15.7501 22.5837 15.4143 22.5837 15.0001V11.6667ZM16.667 10.9167C17.0812 10.9167 17.417 11.2525 17.417 11.6667V12.9167C17.417 13.331 17.0812 13.6667 16.667 13.6667C16.2528 13.6667 15.917 13.331 15.917 12.9167V11.6667C15.917 11.2525 16.2528 10.9167 16.667 10.9167ZM27.8033 11.1364C28.0962 10.8435 28.5711 10.8435 28.864 11.1364C29.1569 11.4293 29.1569 11.9042 28.864 12.1971L27.1973 13.8637C26.9044 14.1566 26.4296 14.1566 26.1367 13.8637C25.8438 13.5709 25.8438 13.096 26.1367 12.8031L27.8033 11.1364ZM15.0003 17.4167H11.667C11.2528 17.4167 10.917 17.081 10.917 16.6667C10.917 16.2525 11.2528 15.9167 11.667 15.9167H15.0003C15.4145 15.9167 15.7503 16.2525 15.7503 16.6667C15.7503 17.081 15.4145 17.4167 15.0003 17.4167ZM20.0003 17.4167C18.5736 17.4167 17.417 18.5733 17.417 20.0001C17.417 21.4268 18.5736 22.5834 20.0003 22.5834C21.4271 22.5834 22.5837 21.4268 22.5837 20.0001C22.5837 18.5733 21.4271 17.4167 20.0003 17.4167ZM15.917 20.0001C15.917 17.7449 17.7452 15.9167 20.0003 15.9167C22.2555 15.9167 24.0837 17.7449 24.0837 20.0001C24.0837 22.2552 22.2555 24.0834 20.0003 24.0834C17.7452 24.0834 15.917 22.2552 15.917 20.0001ZM26.3337 16.6667C26.3337 16.2525 26.6694 15.9167 27.0837 15.9167H28.3337C28.7479 15.9167 29.0837 16.2525 29.0837 16.6667C29.0837 17.081 28.7479 17.4167 28.3337 17.4167H27.0837C26.6694 17.4167 26.3337 17.081 26.3337 16.6667ZM10.917 23.3334C10.917 22.9192 11.2528 22.5834 11.667 22.5834H12.917C13.3312 22.5834 13.667 22.9192 13.667 23.3334C13.667 23.7476 13.3312 24.0834 12.917 24.0834H11.667C11.2528 24.0834 10.917 23.7476 10.917 23.3334ZM24.2503 23.3334C24.2503 22.9192 24.5861 22.5834 25.0003 22.5834H27.917C28.3312 22.5834 28.667 22.9192 28.667 23.3334C28.667 23.7476 28.3312 24.0834 27.917 24.0834H25.0003C24.5861 24.0834 24.2503 23.7476 24.2503 23.3334ZM16.667 24.2501C17.0812 24.2501 17.417 24.5859 17.417 25.0001V28.3334C17.417 28.7476 17.0812 29.0834 16.667 29.0834C16.2528 29.0834 15.917 28.7476 15.917 28.3334V25.0001C15.917 24.5859 16.2528 24.2501 16.667 24.2501ZM13.864 26.1364C14.1569 26.4293 14.1569 26.9042 13.864 27.1971L12.1973 28.8637C11.9044 29.1566 11.4296 29.1566 11.1367 28.8637C10.8438 28.5709 10.8438 28.096 11.1367 27.8031L12.8033 26.1364C13.0962 25.8435 13.5711 25.8435 13.864 26.1364ZM26.1367 26.1364C26.4296 25.8435 26.9044 25.8435 27.1973 26.1364L28.864 27.8031C29.1569 28.096 29.1569 28.5709 28.864 28.8637C28.5711 29.1566 28.0962 29.1566 27.8033 28.8637L26.1367 27.1971C25.8438 26.9042 25.8438 26.4293 26.1367 26.1364ZM23.3337 26.3334C23.7479 26.3334 24.0837 26.6692 24.0837 27.0834V28.3334C24.0837 28.7476 23.7479 29.0834 23.3337 29.0834C22.9194 29.0834 22.5837 28.7476 22.5837 28.3334V27.0834C22.5837 26.6692 22.9194 26.3334 23.3337 26.3334Z" fill="white"/>
</g>
</g>
<defs>
<linearGradient id="paint0_linear_4802_1829" x1="19.9945" y1="40" x2="19.9945" y2="-7.71018" gradientUnits="userSpaceOnUse">
<stop stop-color="#0067C6"/>
<stop offset="1" stop-color="#00E9F8"/>
</linearGradient>
<clipPath id="clip0_4802_1829">
<rect width="40" height="40" fill="white"/>
</clipPath>
<clipPath id="clip1_4802_1829">
<rect width="20" height="20" fill="white" transform="translate(10 10)"/>
</clipPath>
</defs>
</svg>
