<svg width="16" height="16" viewBox="0 0 16 16" fill="none" xmlns="http://www.w3.org/2000/svg">
<path fill-rule="evenodd" clip-rule="evenodd" d="M6.64042 1.41513C6.82467 1.00057 7.23578 0.733398 7.68944 0.733398C8.92871 0.733398 9.93334 1.73802 9.93334 2.97729V5.3334C9.93334 5.37022 9.96318 5.40006 10 5.40006H12.3354C13.9289 5.40006 15.1475 6.82044 14.9052 8.39541L14.1873 13.0621C13.9921 14.3304 12.9008 15.2667 11.6175 15.2667H2.66667C1.59892 15.2667 0.733337 14.4011 0.733337 13.3334V8.66673C0.733337 7.59898 1.59892 6.7334 2.66667 6.7334H4.23342C4.25977 6.7334 4.28364 6.71788 4.29434 6.69381L6.64042 1.41513ZM5.26667 14.0667H11.6175C12.3085 14.0667 12.8961 13.5626 13.0012 12.8796L13.7192 8.21295C13.8496 7.36488 13.1935 6.60006 12.3354 6.60006H10C9.30044 6.60006 8.73334 6.03296 8.73334 5.3334V2.97729C8.73334 2.412 8.28401 1.95166 7.72303 1.93393L5.39092 7.18117C5.35639 7.25886 5.31464 7.33186 5.26667 7.39951V14.0667ZM4.06667 7.9334V14.0667H2.66667C2.26166 14.0667 1.93334 13.7384 1.93334 13.3334V8.66673C1.93334 8.26172 2.26166 7.9334 2.66667 7.9334H4.06667Z" fill="white"/>
</svg>
