<svg width="20" height="20" viewBox="0 0 20 20" fill="none" xmlns="http://www.w3.org/2000/svg">
  <path fillRule="evenodd" clipRule="evenodd" d="M10.0002 17.5833C14.1883 17.5833 17.5835 14.1881 17.5835 9.99998C17.5835 5.81182 14.1883 2.41664 10.0002 2.41664C5.812 2.41664 2.41683 5.81182 2.41683 9.99998C2.41683 14.1881 5.812 17.5833 10.0002 17.5833ZM19.0835 9.99998C19.0835 15.0166 15.0167 19.0833 10.0002 19.0833C4.98357 19.0833 0.916829 15.0166 0.916829 9.99998C0.916829 4.98339 4.98358 0.916644 10.0002 0.916644C15.0168 0.916645 19.0835 4.98339 19.0835 9.99998ZM10.0002 14.0833C9.58595 14.0833 9.25016 13.7475 9.25016 13.3333L9.25016 9.99998C9.25016 9.58576 9.58595 9.24998 10.0002 9.24998C10.4144 9.24998 10.7502 9.58577 10.7502 9.99998L10.7502 13.3333C10.7502 13.7475 10.4144 14.0833 10.0002 14.0833ZM10.7502 6.66665C10.7502 7.08086 10.4144 7.41665 10.0002 7.41665L9.99183 7.41665C9.57762 7.41665 9.24183 7.08086 9.24183 6.66665C9.24183 6.25243 9.57762 5.91665 9.99183 5.91665L10.0002 5.91665C10.4144 5.91665 10.7502 6.25243 10.7502 6.66665Z" fill="#80838F"/>
</svg>