<svg xmlns="http://www.w3.org/2000/svg" fill="currentColor" viewBox="0 0 20 20">
    <path
        d="M18.125 4.753a6.461 6.461 0 0 1-1.915.546 3.46 3.46 0 0 0 1.466-1.92 6.517 6.517 0 0 1-2.117.842 3.27 3.27 0 0 0-2.433-1.096c-1.842 0-3.334 1.554-3.334 3.471 0 .272.03.537.086.791-2.77-.145-5.227-1.526-6.872-3.627a3.564 3.564 0 0 0-.451 1.745 3.51 3.51 0 0 0 1.483 2.89 3.222 3.222 0 0 1-1.51-.434v.043c0 1.682 1.149 3.085 2.674 3.404a3.22 3.22 0 0 1-1.506.06c.425 1.378 1.656 2.382 3.115 2.41a6.523 6.523 0 0 1-4.936 1.437 9.167 9.167 0 0 0 5.11 1.56c6.133 0 9.486-5.29 9.486-9.876 0-.15-.003-.3-.01-.45a6.936 6.936 0 0 0 1.664-1.796Z"
        clip-rule="evenodd" />
</svg>