<svg width="40" height="40" viewBox="0 0 40 40" fill="none" xmlns="http://www.w3.org/2000/svg">
<g clip-path="url(#clip0_4802_3145)">
<circle cx="20" cy="20" r="20" fill="url(#paint0_linear_4802_3145)"/>
<g clip-path="url(#clip1_4802_3145)">
<path fill-rule="evenodd" clip-rule="evenodd" d="M20.0003 12.4167C15.8122 12.4167 12.417 15.8119 12.417 20.0001C12.417 24.1882 15.8122 27.5834 20.0003 27.5834C20.9668 27.5834 21.7503 26.7999 21.7503 25.8334V25.4167C21.7503 25.3985 21.7503 25.3805 21.7503 25.3628C21.7502 25.0281 21.7502 24.7881 21.7781 24.5759C21.9701 23.1175 23.1177 21.9699 24.5761 21.7779C24.7884 21.7499 25.0283 21.75 25.363 21.7501C25.3808 21.7501 25.3987 21.7501 25.417 21.7501H25.8337C26.8002 21.7501 27.5837 20.9666 27.5837 20.0001C27.5837 15.8119 24.1885 12.4167 20.0003 12.4167ZM10.917 20.0001C10.917 14.9835 14.9837 10.9167 20.0003 10.9167C25.0169 10.9167 29.0837 14.9835 29.0837 20.0001C29.0837 21.795 27.6286 23.2501 25.8337 23.2501H25.417C25.0061 23.2501 24.8733 23.2517 24.7719 23.2651C23.9866 23.3684 23.3687 23.9864 23.2653 24.7717C23.2519 24.8731 23.2503 25.0059 23.2503 25.4167V25.8334C23.2503 27.6283 21.7953 29.0834 20.0003 29.0834C14.9837 29.0834 10.917 25.0167 10.917 20.0001ZM16.7503 15.8334C16.7503 14.959 17.4592 14.2501 18.3337 14.2501C19.2081 14.2501 19.917 14.959 19.917 15.8334C19.917 16.7079 19.2081 17.4167 18.3337 17.4167C17.4592 17.4167 16.7503 16.7079 16.7503 15.8334ZM21.7503 16.6667C21.7503 15.7923 22.4592 15.0834 23.3337 15.0834C24.2081 15.0834 24.917 15.7923 24.917 16.6667C24.917 17.5412 24.2081 18.2501 23.3337 18.2501C22.4592 18.2501 21.7503 17.5412 21.7503 16.6667ZM14.2503 20.0001C14.2503 19.1256 14.9592 18.4167 15.8337 18.4167C16.7081 18.4167 17.417 19.1256 17.417 20.0001C17.417 20.8745 16.7081 21.5834 15.8337 21.5834C14.9592 21.5834 14.2503 20.8745 14.2503 20.0001Z" fill="white"/>
</g>
</g>
<defs>
<linearGradient id="paint0_linear_4802_3145" x1="19.9945" y1="40" x2="19.9945" y2="-7.71018" gradientUnits="userSpaceOnUse">
<stop stop-color="#00C68D"/>
<stop offset="1" stop-color="#00F847"/>
</linearGradient>
<clipPath id="clip0_4802_3145">
<rect width="40" height="40" fill="white"/>
</clipPath>
<clipPath id="clip1_4802_3145">
<rect width="20" height="20" fill="white" transform="translate(10 10)"/>
</clipPath>
</defs>
</svg>
