<svg xmlns="http://www.w3.org/2000/svg" fill="currentColor" viewBox="0 0 20 20">
    <path fill-rule="evenodd"
        d="M4.167 3.25a.917.917 0 0 0 0 1.833h11.666A2.417 2.417 0 0 1 18.25 7.5v8.333a2.417 2.417 0 0 1-2.417 2.417H4.167a2.417 2.417 0 0 1-2.417-2.417V4.167A2.417 2.417 0 0 1 4.167 1.75h10a.75.75 0 0 1 0 1.5h-10ZM3.25 6.403v9.43c0 .507.41.917.917.917h11.666c.507 0 .917-.41.917-.917V7.5a.917.917 0 0 0-.917-.917H4.167a2.41 2.41 0 0 1-.917-.18Zm9.333 5.264a1.167 1.167 0 1 1 2.334 0 1.167 1.167 0 0 1-2.334 0Z"
        clip-rule="evenodd" />
</svg>