<svg xmlns="http://www.w3.org/2000/svg" width="20" height="20" viewBox="0 0 20 20" fill="none">
  <path fill-rule="evenodd" clip-rule="evenodd" d="M2.31696 9.37484H6.0689C6.23655 6.86157 7.11027 4.45255 8.58035 2.42202C5.20108 3.05129 2.59697 5.88521 2.31696 9.37484ZM10.0003 2.62378C8.43914 4.54693 7.50392 6.90338 7.32197 9.37484H12.6787C12.4967 6.90338 11.5615 4.54693 10.0003 2.62378ZM12.6787 10.6248C12.4967 13.0963 11.5615 15.4527 10.0003 17.3759C8.43914 15.4527 7.50392 13.0963 7.32197 10.6248H12.6787ZM6.0689 10.6248H2.31696C2.59697 14.1145 5.20108 16.9484 8.58035 17.5777C7.11027 15.5471 6.23655 13.1381 6.0689 10.6248ZM11.4203 17.5777C12.8904 15.5471 13.7641 13.1381 13.9318 10.6248H17.6837C17.4037 14.1145 14.7996 16.9484 11.4203 17.5777ZM17.6837 9.37484H13.9318C13.7641 6.86157 12.8904 4.45255 11.4203 2.42202C14.7996 3.05129 17.4037 5.88521 17.6837 9.37484ZM1.04199 9.99984C1.04199 5.05229 5.05277 1.0415 10.0003 1.0415C14.9479 1.0415 18.9587 5.05229 18.9587 9.99984C18.9587 14.9474 14.9479 18.9582 10.0003 18.9582C5.05277 18.9582 1.04199 14.9474 1.04199 9.99984Z" fill="#80838F"/>
</svg>