<svg width="21" height="16" viewBox="0 0 21 16" fill="none" xmlns="http://www.w3.org/2000/svg">
  <path fill-rule="evenodd" clip-rule="evenodd" d="M18.3212 1.2299C19.2068 1.46696 19.9028 2.1629 20.1398 3.04848C20.5682 4.65201 20.5699 7.99962 20.5699 7.99962C20.5699 7.99962 20.5699 11.3472 20.1398 12.9508C19.9028 13.8364 19.2068 14.5323 18.3212 14.7693C16.7178 15.1994 10.2849 15.1994 10.2849 15.1994C10.2849 15.1994 3.8522 15.1994 2.24867 14.7693C1.36309 14.5323 0.667152 13.8364 0.430093 12.9508C0 11.3472 0 7.99962 0 7.99962C0 7.99962 0 4.65201 0.430093 3.04848C0.667152 2.1629 1.36309 1.46696 2.24867 1.2299C3.8522 0.799805 10.2849 0.799805 10.2849 0.799805C10.2849 0.799805 16.7178 0.799805 18.3212 1.2299ZM13.5706 8.00021L8.22656 11.0853V4.91504L13.5706 8.00021Z" fill="#80838F"/>
</svg>
