<?xml version="1.0" encoding="UTF-8"?>
<svg id="Layer_1" data-name="Layer 1" xmlns="http://www.w3.org/2000/svg" xmlns:xlink="http://www.w3.org/1999/xlink" viewBox="0 0 1080 625">
  <defs>
    <style>
      .cls-1 {
        fill: url(#linear-gradient);
      }

      .cls-2 {
        fill: none;
        stroke: #43ff98;
        stroke-linecap: round;
        stroke-linejoin: round;
        stroke-width: 5px;
      }
    </style>
    <linearGradient id="linear-gradient" x1="550" y1="592" x2="550" y2="37" gradientUnits="userSpaceOnUse">
      <stop offset="0" stop-color="transparent"/>
      <stop offset="1" stop-color="#06c68d"/>
    </linearGradient>
  </defs>
  <path class="cls-1" d="M1059,37c0,335-525.62,346.74-621.19,346.1-8.17-.05-14.81,6.56-14.81,14.73v67.73c0,3.56-2.88,6.44-6.44,6.44H48.66c-4.23,0-7.66,3.43-7.66,7.66v112.34h1018V37Z"/>
  <path class="cls-2" d="M41,591v-112.34c0-4.23,3.43-7.66,7.66-7.66h367.9c3.56,0,6.44-2.88,6.44-6.44v-67.73c0-8.17,6.64-14.78,14.81-14.73,95.57.63,621.19-11.1,621.19-346.1"/>
</svg>
