<svg xmlns="http://www.w3.org/2000/svg" fill="none" viewBox="0 0 87 34">
    <path fill="url(#a)"
        d="M58.516 20.687c1.145 0 2.52-.174 4.209-1.048v-5.156c-1.689 1.688-3.235 2.009-4.38 2.009-2.348 0-3.723-1.224-4.123-1.631-.861-.844-1.662-2.272-1.662-4.281 0-1.864.745-3.437 1.804-4.485 1.001-.988 2.29-1.513 3.894-1.513 2.033 0 3.492 1.02 4.467 2.068V1.466C60.865.652 59.403.39 58.144.39c-2.979 0-5.442 1.136-7.13 2.797-1.72 1.69-2.98 4.195-2.98 7.31 0 3.116 1.262 5.68 2.98 7.367 1.604 1.602 3.98 2.824 7.502 2.824Z" />
    <path fill="url(#b)"
        d="m68.109.828 5.927 9.114L67.02 20.25h5.297l4.238-6.726 4.238 6.726h5.298L79.077 9.942 85.004.828h-5.297l-3.15 5.532L73.405.828h-5.297Z" />
    <path fill="url(#c)" d="M23.753 20.252V.828h3.838L37.956 13.35V.83h4.41v19.423h-3.838L28.163 7.672v12.58h-4.41Z" />
    <path fill="url(#d)"
        d="M15.008 18.476c1.889-1.98 2.118-4.28 2.118-6.145V.828h-4.41v11.386c0 .843-.055 2.269-1 3.26-.775.844-1.834 1.018-2.664 1.018-.83 0-1.89-.174-2.663-1.018-.943-.989-1.001-2.417-1.001-3.26V.828H.978v11.503c0 1.864.23 4.166 2.119 6.145 1.833 1.921 3.95 2.213 5.955 2.213s4.123-.292 5.956-2.213Z" />
    <path fill="color(display-p3 .9569 .9569 .9569)"
        d="M9.48 32.785v-6.18l4.13 4.4v-4.008h.87v6.143l-4.13-4.398v4.043h-.87Zm31.296-1.919-1.501-3.869h-.94l2.424 6.159 1.501-4.104 1.484 4.104 2.543-6.159h-.939l-1.553 3.87-1.483-4.148-1.536 4.147Z" />
    <path fill="color(display-p3 .9569 .9569 .9569)" fill-rule="evenodd"
        d="M54.337 32.898c1.704 0 2.958-1.301 2.958-3.003 0-1.701-1.252-3.002-2.959-3.002-1.706 0-2.96 1.301-2.96 3.002 0 1.702 1.256 3.003 2.96 3.003Zm0-5.188c1.219 0 2.088.9 2.088 2.185 0 1.283-.87 2.186-2.088 2.186-1.22 0-2.09-.903-2.09-2.186 0-1.282.87-2.185 2.09-2.185Zm11.488-.373c-.367-.254-.81-.34-1.502-.34V27H63.31v5.786h.87v-2.37h.153l1.629 2.37h1.05l-1.773-2.473c.758-.172 1.261-.78 1.261-1.613 0-.252-.051-.937-.674-1.363Zm-1.373 2.314h-.273v-1.84h.298c.427 0 1.186.08 1.186.894 0 .919-.972.946-1.21.946Z"
        clip-rule="evenodd" />
    <path fill="color(display-p3 .9569 .9569 .9569)"
        d="m73.6 29.305 2.201-2.308h1.144l-2.568 2.62 2.585 3.168h-1.161l-2.031-2.568-.172.174v2.394h-.87v-5.786h.87v2.308l.003-.002ZM31.67 27.83v4.953h-.87V27.83h-1.306v-.833h3.48v.833H31.67Zm-7.735 0h-2.27v1.466h2.2v.832h-2.2v1.822h2.27v.832h-3.14v-5.785h3.14v.833Zm58.305 1.222.404-2.11.672 1.523.677-1.522.365 2.109h-.3l-.197-1.184-.56 1.274-.556-1.276-.203 1.186h-.302Zm-.646 0v-1.68h.44v-.282h-1.178v.283h.442v1.679h.296Z" />
    <defs>
        <linearGradient id="a" x1="43.523" x2="43.523" y1="20.689" y2="-3.524" gradientUnits="userSpaceOnUse">
            <stop stop-color="color(display-p3 0 .7765 .5529)" />
            <stop offset="1" stop-color="color(display-p3 0 .9725 .2784)" />
        </linearGradient>
        <linearGradient id="b" x1="43.523" x2="43.523" y1="20.689" y2="-3.524" gradientUnits="userSpaceOnUse">
            <stop stop-color="color(display-p3 0 .7765 .5529)" />
            <stop offset="1" stop-color="color(display-p3 0 .9725 .2784)" />
        </linearGradient>
        <linearGradient id="c" x1="43.523" x2="43.523" y1="20.689" y2="-3.524" gradientUnits="userSpaceOnUse">
            <stop stop-color="color(display-p3 0 .7765 .5529)" />
            <stop offset="1" stop-color="color(display-p3 0 .9725 .2784)" />
        </linearGradient>
        <linearGradient id="d" x1="43.523" x2="43.523" y1="20.689" y2="-3.524" gradientUnits="userSpaceOnUse">
            <stop stop-color="color(display-p3 0 .7765 .5529)" />
            <stop offset="1" stop-color="color(display-p3 0 .9725 .2784)" />
        </linearGradient>
    </defs>
</svg>