<svg xmlns="http://www.w3.org/2000/svg" fill="none" viewBox="0 0 49 40">
    <path fill="url(#a)"
        d="M42.83 0H6.114C1.059 0-1.805 6.399 1.266 10.83l18.36 26.523c2.079 3.005 5.877 3.45 8.47 1.335.45-.365.864-.81 1.226-1.335l8.698-13.395 9.66-13.127C50.749 6.396 47.887 0 42.832 0h-.002Z" />
    <path fill="#fff"
        d="M44.354 11.86c.285-.63 1.291-1.844.71-2.323-1.394-1.147-3.492-2.003-5.88-1.582.249-.629 1.444-1.914.64-2.4-1.538-.933-4.118-2.012-6.462-.663l-.272-3.519c-.02-.25-.28-.38-.463-.23l-3.665 2.99-.971-1.947c-.11-.227-.4-.227-.51 0l-1.236 2.48c-1.295.461-2.48 1.257-3.493 2.459L10.92 2.007c-.297-.13-.514.314-.258.518 3.196 2.54 9.684 7.695 9.738 7.74 0 .003-6.622 11.528-6.622 11.53-1.02 1.804-.473 3.335 1.23 4.313.96.547 2.042.749 3.105.629 1.496-.17 4.458-.76 8.995-2.426h.002c.084-.027 2.12-.645 3.263-2.283.004-.015.017-.027.025-.045.469-.744.914-3.05-.006-5.292-.123-.294.155-.604.428-.462 1.385.733 4.12 2.519 5.802 5.874.107.215.664 1.586 1.106 3.107l9.34-13.49c-.823-.554-1.747-.23-2.71.138l-.004.002Z" />
    <path fill="url(#b)" d="m21.388 16.838 3.4-3.367s1.062 1.602-.288 2.99c0 0-1.35 1.32-3.11.38l-.002-.003Z" />
    <path fill="url(#c)"
        d="M37.727 25.212 29.32 37.355c-.363.525-.777.97-1.228 1.335.906-4.475.937-10.77-.987-14.376h.002c.084-.027 2.12-.645 3.264-2.283.004-.016.016-.027.024-.046.47-.744.914-3.05-.006-5.292-.123-.294.156-.604.428-.461 1.385.733 4.12 2.518 5.803 5.873.106.215.663 1.586 1.106 3.107Z" />
    <defs>
        <linearGradient id="a" x1="48.946" x2="0" y1="20.001" y2="20.001" gradientUnits="userSpaceOnUse">
            <stop stop-color="#00C68D" />
            <stop offset="1" stop-color="#00F847" />
        </linearGradient>
        <linearGradient id="b" x1="23.711" x2="22.932" y1="13.261" y2="17.273" gradientUnits="userSpaceOnUse">
            <stop stop-color="#00C68D" />
            <stop offset="1" stop-color="#00F847" />
        </linearGradient>
        <linearGradient id="c" x1="24.969" x2="37.681" y1="29.207" y2="25.017" gradientUnits="userSpaceOnUse">
            <stop stop-color="#00F847" />
            <stop offset="1" stop-color="#fff" />
        </linearGradient>
    </defs>
</svg>