<?xml version="1.0" encoding="UTF-8"?>
<svg id="UNCX_Network" data-name="UNCX Network" xmlns="http://www.w3.org/2000/svg" xmlns:xlink="http://www.w3.org/1999/xlink" viewBox="0 0 290.61 215.06">
  <defs>
    <style>
      .cls-1 {
        fill: url(#linear-gradient-2);
      }

      .cls-2 {
        fill: url(#linear-gradient-3);
      }

      .cls-3 {
        fill: url(#linear-gradient);
      }
    </style>
    <linearGradient id="linear-gradient" x1="290.61" y1="107.53" x2="0" y2="107.53" gradientUnits="userSpaceOnUse">
      <stop offset="0" stop-color="#00c68d"/>
      <stop offset="1" stop-color="#00f847"/>
    </linearGradient>
    <linearGradient id="linear-gradient-2" x1="140.79" y1="71.29" x2="136.96" y2="93.01" xlink:href="#linear-gradient"/>
    <linearGradient id="linear-gradient-3" x1="148.24" y1="157.03" x2="222.14" y2="130.14" gradientUnits="userSpaceOnUse">
      <stop offset="0" stop-color="#00f847"/>
      <stop offset="1" stop-color="#fff"/>
    </linearGradient>
  </defs>
  <g id="UNCX_LOGO_FULL" data-name="UNCX LOGO FULL">
    <path id="triangle" class="cls-3" d="m283.1,58.24l-3.65,4.79c-5.21-3.08-10.54-1.13-16.09.73,1.69-3.39,7.67-9.91,4.21-12.5-8.29-6.18-20.73-10.77-34.92-8.51,1.48-3.38,8.58-10.28,3.82-12.9-9.14-5.02-24.45-10.82-38.37-3.57l-1.63-18.92c-.12-1.35-1.66-2.04-2.74-1.24l-21.77,16.08-5.76-10.46c-.65-1.22-2.37-1.22-3.04,0l-7.33,13.33c-7.69,2.48-14.71,6.77-20.73,13.23L64.84,10.78c-1.76-.69-3.06,1.69-1.54,2.79,18.97,13.66,57.51,41.38,57.81,41.62,0,.01-39.32,61.98-39.32,61.99-6.06,9.69-2.8,17.93,7.31,23.19,5.72,2.95,12.13,4.03,18.44,3.38,8.87-.92,26.47-4.09,53.4-13.03h.01c.5-.15,12.59-3.48,19.39-12.29.04-.09.1-.13.15-.23,2.79-4,5.42-16.4-.05-28.45-.73-1.58.93-3.24,2.55-2.48,8.21,3.95,24.45,13.54,34.45,31.59.64,1.15,3.95,8.53,6.57,16.71l-49.91,65.28c-2.15,2.83-4.61,5.23-7.29,7.18-15.37,11.37-37.93,8.98-50.29-7.18L7.52,58.24C-10.72,34.4,6.29,0,36.3,0h218.02c30.01,0,47.01,34.4,28.78,58.24Z"/>
    <path id="eye" class="cls-1" d="m145.46,88.48s-8.02,7.1-18.47,2.04l20.18-18.11s6.3,8.62-1.71,16.07Z"/>
    <path id="neck" class="cls-2" d="m224,135.55l-49.91,65.28c-2.15,2.83-4.61,5.23-7.29,7.18,5.37-24.07,5.56-57.9-5.86-77.3h.01c.5-.15,12.59-3.48,19.39-12.29.04-.09.1-.13.15-.23,2.79-4,5.42-16.4-.05-28.45-.73-1.58.93-3.24,2.55-2.48,8.21,3.95,24.45,13.54,34.45,31.59.64,1.15,3.95,8.53,6.57,16.71Z"/>
  </g>
</svg>