<svg width="504" height="360" viewBox="0 0 504 360" fill="none" xmlns="http://www.w3.org/2000/svg">
  <path opacity="0.6" fill-rule="evenodd" clip-rule="evenodd" d="M470.436 103.384C468.744 106.281 467.181 108.958 466.217 111.141L466.273 111.109C479.553 105.912 492.296 101.353 503.655 109.164V356L396 351C371.5 273 343.5 206.881 279.565 172.707C275.807 170.698 271.964 175.066 273.659 179.211C314.824 281.731 219.982 296.297 104.328 320.771C89.6634 322.461 74.7448 319.623 61.4933 311.908C38.0134 298.134 30.4693 276.549 44.5403 251.139L135.86 88.6636C135.408 88.2713 101.359 60.6257 64.9609 31.0723C42.201 12.5927 18.5224 -6.63281 1.56455 -20.4078C-1.96731 -23.2772 1.02771 -29.5263 5.12467 -27.7089L168.297 44.4101C182.283 27.4803 198.614 16.2576 216.472 9.75346L233.509 -25.1902C235.035 -28.3785 239.047 -28.3785 240.545 -25.1902L253.938 2.26097L304.486 -39.8882C307 -41.9925 310.589 -40.1751 310.871 -36.6361L314.629 12.9417C346.953 -6.06046 382.526 9.14767 403.745 22.2834C411.905 27.3333 405.113 38.4914 399.593 47.561C397.62 50.8026 395.809 53.7774 394.901 56.1112C427.847 50.181 456.78 62.2327 475.993 78.3973C482.048 83.4974 475.635 94.4788 470.436 103.384ZM196.382 133.839L149.479 181.281L149.507 181.313C179.207 197.543 216.843 165.397 196.382 133.839Z" fill="url(#paint0_linear_4505_27194)"/>
  <path opacity="0.6" d="M393.527 342L258.883 470.378C253.882 477.774 248.174 484.055 241.958 489.188C254.468 310.37 226.908 289.233 226.908 289.233C278.704 269.087 296.446 235 273.632 179.223C271.937 175.078 275.779 170.71 279.537 172.719C329.644 199.818 363.027 245 393.527 342Z" fill="url(#paint1_linear_4505_27194)"/>
  <defs>
    <linearGradient id="paint0_linear_4505_27194" x1="-713" y1="461" x2="490" y2="112" gradientUnits="userSpaceOnUse">
      <stop stop-color="#00C85D"/>
      <stop offset="1"/>
    </linearGradient>
    <linearGradient id="paint1_linear_4505_27194" x1="198.866" y1="355.567" x2="374.907" y2="298.778" gradientUnits="userSpaceOnUse">
      <stop stop-color="#26B1FF" stop-opacity="0.7"/>
      <stop offset="1" stop-color="#00C85D" stop-opacity="0.5"/>
    </linearGradient>
  </defs>
</svg>
